{
	"asset":{
		"generator":"Khronos glTF Blender I/O v4.5.48",
		"version":"2.0"
	},
	"extensionsUsed":[
		"KHR_materials_specular"
	],
	"scene":0,
	"scenes":[
		{
			"name":"Scene",
			"nodes":[
				16
			]
		}
	],
	"nodes":[
		{
			"mesh":0,
			"name":"Cube.001_Material.001_0"
		},
		{
			"children":[
				0
			],
			"name":"Cube.001",
			"rotation":[
				-0.70710688829422,
				0,
				0,
				0.7071066498756409
			],
			"scale":[
				100,
				99.99999237060547,
				99.99999237060547
			]
		},
		{
			"name":"Cube.003",
			"rotation":[
				-0.70710688829422,
				0,
				0,
				0.7071066498756409
			],
			"scale":[
				100,
				99.99999237060547,
				99.99999237060547
			],
			"translation":[
				0,
				0,
				-900
			]
		},
		{
			"name":"Cube.004",
			"rotation":[
				-0.70710688829422,
				0,
				0,
				0.7071066498756409
			],
			"scale":[
				100,
				99.99999237060547,
				99.99999237060547
			],
			"translation":[
				0,
				0,
				-900
			]
		},
		{
			"name":"Cube.005",
			"rotation":[
				-0.70710688829422,
				0,
				0,
				0.7071066498756409
			],
			"scale":[
				100,
				99.99999237060547,
				99.99999237060547
			],
			"translation":[
				0,
				0,
				-900
			]
		},
		{
			"name":"Cube.006",
			"rotation":[
				-0.70710688829422,
				0,
				0,
				0.7071066498756409
			],
			"scale":[
				100,
				99.99999237060547,
				99.99999237060547
			],
			"translation":[
				0,
				0,
				-900
			]
		},
		{
			"name":"Cube.007",
			"rotation":[
				-0.70710688829422,
				0,
				0,
				0.7071066498756409
			],
			"scale":[
				100,
				99.99999237060547,
				99.99999237060547
			],
			"translation":[
				0,
				0,
				-900
			]
		},
		{
			"mesh":1,
			"name":"Cube.008_Material.002_0"
		},
		{
			"mesh":2,
			"name":"Cube.008_Material.003_0"
		},
		{
			"children":[
				7,
				8
			],
			"name":"Cube.008",
			"rotation":[
				-0.70710688829422,
				0,
				0,
				0.7071066498756409
			],
			"scale":[
				62.78386688232422,
				99.99999237060547,
				99.99999237060547
			],
			"translation":[
				0.03448624163866043,
				200.65301513671875,
				82.8188705444336
			]
		},
		{
			"name":"Cube.009",
			"rotation":[
				-0.70710688829422,
				0,
				0,
				0.7071066498756409
			],
			"scale":[
				100,
				99.99999237060547,
				99.99999237060547
			],
			"translation":[
				0,
				0,
				400
			]
		},
		{
			"name":"Cube.011",
			"rotation":[
				-0.70710688829422,
				0,
				0,
				0.7071066498756409
			],
			"scale":[
				100,
				99.99999237060547,
				99.99999237060547
			],
			"translation":[
				0,
				0,
				-400
			]
		},
		{
			"mesh":3,
			"name":"Cube.015_Material.005_0"
		},
		{
			"children":[
				12
			],
			"name":"Cube.015",
			"rotation":[
				-0.70710688829422,
				0,
				0,
				0.7071066498756409
			],
			"scale":[
				100,
				99.99999237060547,
				99.99999237060547
			],
			"translation":[
				12.028973579406738,
				200.1249237060547,
				-73.62519073486328
			]
		},
		{
			"children":[
				1,
				2,
				3,
				4,
				5,
				6,
				9,
				10,
				11,
				13
			],
			"name":"RootNode"
		},
		{
			"children":[
				14
			],
			"name":"0d559d6f63fd4af8965973c967c47d24.fbx",
			"rotation":[
				0.70710688829422,
				0,
				0,
				0.7071066498756409
			],
			"scale":[
				0.009999999776482582,
				0.010000000707805157,
				0.010000000707805157
			]
		},
		{
			"children":[
				15
			],
			"name":"Sketchfab_model",
			"rotation":[
				-0.70710688829422,
				0,
				0,
				0.7071066498756409
			],
			"scale":[
				0.53392094373703,
				0.5339210033416748,
				0.5339210033416748
			]
		}
	],
	"materials":[
		{
			"doubleSided":true,
			"name":"Material.001",
			"pbrMetallicRoughness":{
				"baseColorFactor":[
					0.0576603002846241,
					0.031008800491690636,
					0,
					1
				],
				"metallicFactor":0,
				"roughnessFactor":0.9922998547554016
			}
		},
		{
			"doubleSided":true,
			"name":"Material.002",
			"pbrMetallicRoughness":{
				"baseColorFactor":[
					0,
					0,
					0,
					1
				],
				"metallicFactor":0
			}
		},
		{
			"doubleSided":true,
			"name":"Material.003",
			"pbrMetallicRoughness":{
				"baseColorFactor":[
					0.4458310008049011,
					0.4458310008049011,
					0.4458310008049011,
					1
				],
				"metallicFactor":0,
				"roughnessFactor":0.8590158820152283
			}
		},
		{
			"doubleSided":true,
			"extensions":{
				"KHR_materials_specular":{
					"specularFactor":0.7102384567260742
				}
			},
			"name":"Material.005",
			"pbrMetallicRoughness":{
				"baseColorFactor":[
					0.0790892019867897,
					0.0790892019867897,
					0.0790892019867897,
					1
				],
				"metallicFactor":0,
				"roughnessFactor":0.7756022810935974
			}
		}
	],
	"meshes":[
		{
			"name":"Cube.001_Material.001_0",
			"primitives":[
				{
					"attributes":{
						"POSITION":0,
						"NORMAL":1,
						"TEXCOORD_0":2
					},
					"indices":3,
					"material":0
				}
			]
		},
		{
			"name":"Cube.008_Material.002_0",
			"primitives":[
				{
					"attributes":{
						"POSITION":4,
						"NORMAL":5,
						"TEXCOORD_0":6
					},
					"indices":7,
					"material":1
				}
			]
		},
		{
			"name":"Cube.008_Material.003_0",
			"primitives":[
				{
					"attributes":{
						"POSITION":8,
						"NORMAL":9,
						"TEXCOORD_0":10
					},
					"indices":11,
					"material":2
				}
			]
		},
		{
			"name":"Cube.015_Material.005_0",
			"primitives":[
				{
					"attributes":{
						"POSITION":12,
						"NORMAL":13,
						"TEXCOORD_0":14
					},
					"indices":15,
					"material":3
				}
			]
		}
	],
	"accessors":[
		{
			"bufferView":0,
			"componentType":5126,
			"count":48,
			"max":[
				0.12368800491094589,
				1,
				4
			],
			"min":[
				-0.12368800491094589,
				-1,
				0
			],
			"type":"VEC3"
		},
		{
			"bufferView":1,
			"componentType":5126,
			"count":48,
			"type":"VEC3"
		},
		{
			"bufferView":2,
			"componentType":5126,
			"count":48,
			"type":"VEC2"
		},
		{
			"bufferView":3,
			"componentType":5123,
			"count":84,
			"type":"SCALAR"
		},
		{
			"bufferView":4,
			"componentType":5126,
			"count":84,
			"max":[
				0.11083518713712692,
				1.7088263034820557,
				1.8497394323349
			],
			"min":[
				-0.11159402877092361,
				-0.06338757276535034,
				-2.0065295696258545
			],
			"type":"VEC3"
		},
		{
			"bufferView":5,
			"componentType":5126,
			"count":84,
			"type":"VEC3"
		},
		{
			"bufferView":6,
			"componentType":5126,
			"count":84,
			"type":"VEC2"
		},
		{
			"bufferView":7,
			"componentType":5123,
			"count":144,
			"type":"SCALAR"
		},
		{
			"bufferView":8,
			"componentType":5126,
			"count":24,
			"max":[
				0.07995250076055527,
				1.4289207458496094,
				1.6405080556869507
			],
			"min":[
				-0.07767597585916519,
				0.9666082262992859,
				-1.7296652793884277
			],
			"type":"VEC3"
		},
		{
			"bufferView":9,
			"componentType":5126,
			"count":24,
			"type":"VEC3"
		},
		{
			"bufferView":10,
			"componentType":5126,
			"count":24,
			"type":"VEC2"
		},
		{
			"bufferView":11,
			"componentType":5123,
			"count":36,
			"type":"SCALAR"
		},
		{
			"bufferView":12,
			"componentType":5126,
			"count":84,
			"max":[
				0.06321306526660919,
				0.07745707035064697,
				0.06534671038389206
			],
			"min":[
				-0.020693179219961166,
				-0.23182669281959534,
				-0.06534672528505325
			],
			"type":"VEC3"
		},
		{
			"bufferView":13,
			"componentType":5126,
			"count":84,
			"type":"VEC3"
		},
		{
			"bufferView":14,
			"componentType":5126,
			"count":84,
			"type":"VEC2"
		},
		{
			"bufferView":15,
			"componentType":5123,
			"count":444,
			"type":"SCALAR"
		}
	],
	"bufferViews":[
		{
			"buffer":0,
			"byteLength":576,
			"byteOffset":0,
			"target":34962
		},
		{
			"buffer":0,
			"byteLength":576,
			"byteOffset":576,
			"target":34962
		},
		{
			"buffer":0,
			"byteLength":384,
			"byteOffset":1152,
			"target":34962
		},
		{
			"buffer":0,
			"byteLength":168,
			"byteOffset":1536,
			"target":34963
		},
		{
			"buffer":0,
			"byteLength":1008,
			"byteOffset":1704,
			"target":34962
		},
		{
			"buffer":0,
			"byteLength":1008,
			"byteOffset":2712,
			"target":34962
		},
		{
			"buffer":0,
			"byteLength":672,
			"byteOffset":3720,
			"target":34962
		},
		{
			"buffer":0,
			"byteLength":288,
			"byteOffset":4392,
			"target":34963
		},
		{
			"buffer":0,
			"byteLength":288,
			"byteOffset":4680,
			"target":34962
		},
		{
			"buffer":0,
			"byteLength":288,
			"byteOffset":4968,
			"target":34962
		},
		{
			"buffer":0,
			"byteLength":192,
			"byteOffset":5256,
			"target":34962
		},
		{
			"buffer":0,
			"byteLength":72,
			"byteOffset":5448,
			"target":34963
		},
		{
			"buffer":0,
			"byteLength":1008,
			"byteOffset":5520,
			"target":34962
		},
		{
			"buffer":0,
			"byteLength":1008,
			"byteOffset":6528,
			"target":34962
		},
		{
			"buffer":0,
			"byteLength":672,
			"byteOffset":7536,
			"target":34962
		},
		{
			"buffer":0,
			"byteLength":888,
			"byteOffset":8208,
			"target":34963
		}
	],
	"buffers":[
		{
			"byteLength":9096,
			"uri":"puerta1.bin"
		}
	]
}
