{
  "accessors": [
    {
      "bufferView": 2,
      "componentType": 5126,
      "count": 272,
      "max": [
        1.8168977499008179,
        0.8149393200874329,
        0.008994129486382008
      ],
      "min": [
        -1.8168977499008179,
        -0.814939558506012,
        -0.055888302624225616
      ],
      "type": "VEC3"
    },
    {
      "bufferView": 2,
      "byteOffset": 3264,
      "componentType": 5126,
      "count": 272,
      "max": [
        1.0,
        1.0,
        1.0
      ],
      "min": [
        -1.0,
        -1.0,
        -1.0
      ],
      "type": "VEC3"
    },
    {
      "bufferView": 3,
      "componentType": 5126,
      "count": 272,
      "max": [
        1.0,
        1.0,
        0.19391770660877228,
        -1.0
      ],
      "min": [
        -1.0,
        -0.03999605402350426,
        -0.19391778111457825,
        -1.0
      ],
      "type": "VEC4"
    },
    {
      "bufferView": 1,
      "componentType": 5126,
      "count": 272,
      "max": [
        0.9983910322189331,
        0.9883880019187927
      ],
      "min": [
        0.0016087591648101807,
        0.0690542459487915
      ],
      "type": "VEC2"
    },
    {
      "bufferView": 1,
      "byteOffset": 2176,
      "componentType": 5126,
      "count": 272,
      "max": [
        0.9983910322189331,
        0.9883880019187927
      ],
      "min": [
        0.0016087591648101807,
        0.0690542459487915
      ],
      "type": "VEC2"
    },
    {
      "bufferView": 1,
      "byteOffset": 4352,
      "componentType": 5126,
      "count": 272,
      "max": [
        0.9983910322189331,
        0.9883880019187927
      ],
      "min": [
        0.0016087591648101807,
        0.0690542459487915
      ],
      "type": "VEC2"
    },
    {
      "bufferView": 1,
      "byteOffset": 6528,
      "componentType": 5126,
      "count": 272,
      "max": [
        0.9983910322189331,
        0.9883880019187927
      ],
      "min": [
        0.0016087591648101807,
        0.0690542459487915
      ],
      "type": "VEC2"
    },
    {
      "bufferView": 0,
      "componentType": 5125,
      "count": 660,
      "type": "SCALAR"
    },
    {
      "bufferView": 2,
      "byteOffset": 6528,
      "componentType": 5126,
      "count": 708,
      "max": [
        1.6205294132232666,
        0.7144272923469543,
        0.004198481794446707
      ],
      "min": [
        1.6101007461547852,
        0.6997952461242676,
        -0.013620506972074509
      ],
      "type": "VEC3"
    },
    {
      "bufferView": 2,
      "byteOffset": 15024,
      "componentType": 5126,
      "count": 708,
      "max": [
        0.994199275970459,
        0.9911003112792969,
        0.9997168779373169
      ],
      "min": [
        -0.9832038879394531,
        -0.9934219121932983,
        -0.9999116063117981
      ],
      "type": "VEC3"
    },
    {
      "bufferView": 1,
      "byteOffset": 8704,
      "componentType": 5126,
      "count": 708,
      "max": [
        1.0008654594421387,
        0.8419948816299438
      ],
      "min": [
        -0.0008657788275741041,
        0.0
      ],
      "type": "VEC2"
    },
    {
      "bufferView": 0,
      "byteOffset": 2640,
      "componentType": 5125,
      "count": 2592,
      "type": "SCALAR"
    },
    {
      "bufferView": 2,
      "byteOffset": 23520,
      "componentType": 5126,
      "count": 96,
      "max": [
        1.6160564422607422,
        0.7081120014190674,
        -0.0035644210875034332
      ],
      "min": [
        1.613532543182373,
        0.6983194351196289,
        -0.0257374569773674
      ],
      "type": "VEC3"
    },
    {
      "bufferView": 2,
      "byteOffset": 24672,
      "componentType": 5126,
      "count": 96,
      "max": [
        0.9934470057487488,
        0.9339427351951599,
        0.9110133051872253
      ],
      "min": [
        -0.9934370517730713,
        -0.9742335677146912,
        -0.9210817813873291
      ],
      "type": "VEC3"
    },
    {
      "bufferView": 1,
      "byteOffset": 14368,
      "componentType": 5126,
      "count": 96,
      "max": [
        0.7812760472297668,
        0.7812758684158325
      ],
      "min": [
        0.7187240123748779,
        0.7187238931655884
      ],
      "type": "VEC2"
    },
    {
      "bufferView": 0,
      "byteOffset": 13008,
      "componentType": 5125,
      "count": 282,
      "type": "SCALAR"
    },
    {
      "bufferView": 2,
      "byteOffset": 25824,
      "componentType": 5126,
      "count": 369,
      "max": [
        1.6625759601593018,
        0.708442211151123,
        -0.0073652141727507114
      ],
      "min": [
        1.568447470664978,
        0.5964381098747253,
        -0.01778400130569935
      ],
      "type": "VEC3"
    },
    {
      "bufferView": 2,
      "byteOffset": 30252,
      "componentType": 5126,
      "count": 369,
      "max": [
        0.9976488947868347,
        0.9999516010284424,
        0.9979760050773621
      ],
      "min": [
        -0.9976494312286377,
        -0.9999496936798096,
        -0.9979760050773621
      ],
      "type": "VEC3"
    },
    {
      "bufferView": 1,
      "byteOffset": 15136,
      "componentType": 5126,
      "count": 369,
      "max": [
        1.0,
        1.0
      ],
      "min": [
        0.0,
        0.0
      ],
      "type": "VEC2"
    },
    {
      "bufferView": 0,
      "byteOffset": 14136,
      "componentType": 5125,
      "count": 1632,
      "type": "SCALAR"
    },
    {
      "bufferView": 2,
      "byteOffset": 34680,
      "componentType": 5126,
      "count": 25,
      "max": [
        1.656713843345642,
        0.7013306617736816,
        -0.009090743027627468
      ],
      "min": [
        1.5743205547332764,
        0.6146496534347534,
        -0.01688189059495926
      ],
      "type": "VEC3"
    },
    {
      "bufferView": 2,
      "byteOffset": 34980,
      "componentType": 5126,
      "count": 25,
      "max": [
        0.07000210136175156,
        -0.003500167280435562,
        -0.9958299398422241
      ],
      "min": [
        0.06990333646535873,
        -0.05850175768136978,
        -0.9975476264953613
      ],
      "type": "VEC3"
    },
    {
      "bufferView": 1,
      "byteOffset": 18088,
      "componentType": 5126,
      "count": 25,
      "max": [
        0.937891960144043,
        0.9477269053459167
      ],
      "min": [
        0.062108080834150314,
        0.05227303504943848
      ],
      "type": "VEC2"
    },
    {
      "bufferView": 0,
      "byteOffset": 20664,
      "componentType": 5125,
      "count": 96,
      "type": "SCALAR"
    }
  ],
  "asset": {
    "extras": {
      "author": "ali98hussain (https://sketchfab.com/ali98hussain)",
      "license": "SKETCHFAB Standard (https://sketchfab.com/licenses)",
      "source": "https://sketchfab.com/3d-models/realistic-blackboard-1fcaf45adf91486c94988080742ebdc5",
      "title": "Realistic Blackboard"
    },
    "generator": "Sketchfab-16.51.0",
    "version": "2.0"
  },
  "bufferViews": [
    {
      "buffer": 0,
      "byteLength": 21048,
      "name": "floatBufferViews",
      "target": 34963
    },
    {
      "buffer": 0,
      "byteLength": 18288,
      "byteOffset": 21048,
      "byteStride": 8,
      "name": "floatBufferViews",
      "target": 34962
    },
    {
      "buffer": 0,
      "byteLength": 35280,
      "byteOffset": 39336,
      "byteStride": 12,
      "name": "floatBufferViews",
      "target": 34962
    },
    {
      "buffer": 0,
      "byteLength": 4352,
      "byteOffset": 74616,
      "byteStride": 16,
      "name": "floatBufferViews",
      "target": 34962
    }
  ],
  "buffers": [
    {
      "byteLength": 78968,
      "uri": "scene.bin"
    }
  ],
  "extensionsUsed": [
    "KHR_materials_transmission",
    "KHR_materials_specular"
  ],
  "images": [
    {
      "uri": "textures/Material.001_baseColor.png"
    },
    {
      "uri": "textures/Material.001_metallicRoughness.png"
    },
    {
      "uri": "textures/Material.001_normal.png"
    }
  ],
  "materials": [
    {
      "doubleSided": true,
      "name": "Material.001",
      "normalTexture": {
        "index": 2,
        "scale": 0.5
      },
      "pbrMetallicRoughness": {
        "baseColorTexture": {
          "index": 0
        },
        "metallicRoughnessTexture": {
          "index": 1
        }
      }
    },
    {
      "alphaMode": "BLEND",
      "doubleSided": true,
      "extensions": {
        "KHR_materials_specular": {
          "specularColorFactor": [
            1.0,
            1.0,
            1.0
          ],
          "specularFactor": 1.0
        },
        "KHR_materials_transmission": {
          "transmissionFactor": 1.0
        }
      },
      "name": "transparent_plastic",
      "pbrMetallicRoughness": {
        "baseColorFactor": [
          0.785468,
          0.00325141,
          0.0,
          0.25
        ],
        "metallicFactor": 0.0,
        "roughnessFactor": 0.195455
      }
    },
    {
      "doubleSided": true,
      "extensions": {
        "KHR_materials_specular": {
          "specularColorFactor": [
            1.0,
            1.0,
            1.0
          ],
          "specularFactor": 1.0
        }
      },
      "name": "metal",
      "pbrMetallicRoughness": {
        "baseColorFactor": [
          0.303199,
          0.303199,
          0.303199,
          1.0
        ],
        "roughnessFactor": 0.225
      }
    },
    {
      "doubleSided": true,
      "name": "Material.005",
      "pbrMetallicRoughness": {
        "baseColorFactor": [
          0.665277,
          0.576005,
          0.52779,
          1.0
        ],
        "metallicFactor": 0.0,
        "roughnessFactor": 0.0272727
      }
    },
    {
      "doubleSided": true,
      "name": "Photo",
      "pbrMetallicRoughness": {
        "metallicFactor": 0.0
      }
    }
  ],
  "meshes": [
    {
      "name": "Object_0",
      "primitives": [
        {
          "attributes": {
            "NORMAL": 1,
            "POSITION": 0,
            "TANGENT": 2,
            "TEXCOORD_0": 3,
            "TEXCOORD_1": 4,
            "TEXCOORD_2": 5,
            "TEXCOORD_3": 6
          },
          "indices": 7,
          "material": 0,
          "mode": 4
        }
      ]
    },
    {
      "name": "Object_1",
      "primitives": [
        {
          "attributes": {
            "NORMAL": 9,
            "POSITION": 8,
            "TEXCOORD_0": 10
          },
          "indices": 11,
          "material": 1,
          "mode": 4
        }
      ]
    },
    {
      "name": "Object_2",
      "primitives": [
        {
          "attributes": {
            "NORMAL": 13,
            "POSITION": 12,
            "TEXCOORD_0": 14
          },
          "indices": 15,
          "material": 2,
          "mode": 4
        }
      ]
    },
    {
      "name": "Object_3",
      "primitives": [
        {
          "attributes": {
            "NORMAL": 17,
            "POSITION": 16,
            "TEXCOORD_0": 18
          },
          "indices": 19,
          "material": 3,
          "mode": 4
        }
      ]
    },
    {
      "name": "Object_4",
      "primitives": [
        {
          "attributes": {
            "NORMAL": 21,
            "POSITION": 20,
            "TEXCOORD_0": 22
          },
          "indices": 23,
          "material": 4,
          "mode": 4
        }
      ]
    }
  ],
  "nodes": [
    {
      "children": [
        1
      ],
      "matrix": [
        1.0,
        0.0,
        0.0,
        0.0,
        0.0,
        2.220446049250313e-16,
        -1.0,
        0.0,
        0.0,
        1.0,
        2.220446049250313e-16,
        0.0,
        0.0,
        0.0,
        0.0,
        1.0
      ],
      "name": "Sketchfab_model"
    },
    {
      "children": [
        2
      ],
      "name": "root"
    },
    {
      "children": [
        3,
        5,
        10
      ],
      "matrix": [
        1.0,
        0.0,
        0.0,
        0.0,
        0.0,
        2.220446049250313e-16,
        1.0,
        0.0,
        0.0,
        -1.0,
        2.220446049250313e-16,
        0.0,
        0.0,
        0.0,
        0.0,
        1.0
      ],
      "name": "GLTF_SceneRootNode"
    },
    {
      "children": [
        4
      ],
      "name": "Cube_0"
    },
    {
      "mesh": 0,
      "name": "Object_4"
    },
    {
      "children": [
        6
      ],
      "name": "plastic_pin_3"
    },
    {
      "children": [
        7,
        8
      ],
      "name": "pin_plastic_body_2"
    },
    {
      "mesh": 1,
      "name": "Object_7"
    },
    {
      "children": [
        9
      ],
      "name": "pin_metal_1"
    },
    {
      "mesh": 2,
      "name": "Object_9"
    },
    {
      "children": [
        11,
        12
      ],
      "name": "06_4"
    },
    {
      "mesh": 3,
      "name": "Object_11"
    },
    {
      "mesh": 4,
      "name": "Object_12"
    }
  ],
  "samplers": [
    {
      "magFilter": 9729,
      "minFilter": 9987,
      "wrapS": 10497,
      "wrapT": 10497
    }
  ],
  "scene": 0,
  "scenes": [
    {
      "name": "Sketchfab_Scene",
      "nodes": [
        0
      ]
    }
  ],
  "textures": [
    {
      "sampler": 0,
      "source": 0
    },
    {
      "sampler": 0,
      "source": 1
    },
    {
      "sampler": 0,
      "source": 2
    }
  ]
}
