{
	"asset":{
		"generator":"Khronos glTF Blender I/O v4.5.48",
		"version":"2.0"
	},
	"scene":0,
	"scenes":[
		{
			"name":"Scene",
			"nodes":[
				17
			]
		}
	],
	"nodes":[
		{
			"mesh":0,
			"name":"Cube_Material_0"
		},
		{
			"children":[
				0
			],
			"name":"Cube",
			"rotation":[
				-0.70710688829422,
				0,
				0,
				0.7071066498756409
			],
			"scale":[
				100,
				100,
				100
			],
			"translation":[
				30.088504791259766,
				-11.810471534729004,
				0
			]
		},
		{
			"mesh":1,
			"name":"Cube.001_Material_0"
		},
		{
			"children":[
				2
			],
			"name":"Cube.001",
			"rotation":[
				-0.70710688829422,
				0,
				0,
				0.7071066498756409
			],
			"scale":[
				100,
				100,
				100
			],
			"translation":[
				30.088504791259766,
				-24.564594268798828,
				0
			]
		},
		{
			"mesh":2,
			"name":"Cylinder_Material_0"
		},
		{
			"children":[
				4
			],
			"name":"Cylinder",
			"rotation":[
				-0.70710688829422,
				0,
				0,
				0.7071066498756409
			],
			"scale":[
				100,
				100,
				100
			],
			"translation":[
				80.52410888671875,
				-14.167256355285645,
				0
			]
		},
		{
			"mesh":3,
			"name":"Cylinder.001_Material_0"
		},
		{
			"children":[
				6
			],
			"name":"Cylinder.001",
			"rotation":[
				-0.70710688829422,
				0,
				0,
				0.7071066498756409
			],
			"scale":[
				100,
				100,
				100
			],
			"translation":[
				30.088504791259766,
				-105.6904525756836,
				-33.768882751464844
			]
		},
		{
			"mesh":4,
			"name":"Cylinder.002_Material_0"
		},
		{
			"children":[
				8
			],
			"name":"Cylinder.002",
			"rotation":[
				-0.70710688829422,
				0,
				0,
				0.7071066498756409
			],
			"scale":[
				100,
				100,
				100
			],
			"translation":[
				-20.321474075317383,
				-105.6904525756836,
				4.502326011657715
			]
		},
		{
			"mesh":5,
			"name":"Cylinder.003_Material_0"
		},
		{
			"children":[
				10
			],
			"name":"Cylinder.003",
			"rotation":[
				-0.70710688829422,
				0,
				0,
				0.7071066498756409
			],
			"scale":[
				100,
				100,
				100
			],
			"translation":[
				-20.34051513671875,
				-16.74666404724121,
				1.5748635530471802
			]
		},
		{
			"mesh":6,
			"name":"Cylinder.004_Material_0"
		},
		{
			"children":[
				12
			],
			"name":"Cylinder.004",
			"rotation":[
				-0.70710688829422,
				0,
				0,
				0.7071066498756409
			],
			"scale":[
				100,
				100,
				100
			],
			"translation":[
				30.088504791259766,
				-36.36960220336914,
				-33.810428619384766
			]
		},
		{
			"name":"Cylinder.005",
			"rotation":[
				-0.70710688829422,
				0,
				0,
				0.7071066498756409
			],
			"scale":[
				100,
				100,
				100
			],
			"translation":[
				80.52410888671875,
				-14.167256355285645,
				21.536170959472656
			]
		},
		{
			"children":[
				1,
				3,
				5,
				7,
				9,
				11,
				13,
				14
			],
			"name":"RootNode"
		},
		{
			"children":[
				15
			],
			"name":"121207b6f42c4ac1bcaf1d674d1d985b.fbx",
			"rotation":[
				0.70710688829422,
				0,
				0,
				0.7071066498756409
			],
			"scale":[
				0.009999999776482582,
				0.010000000707805157,
				0.010000000707805157
			]
		},
		{
			"children":[
				16
			],
			"name":"Sketchfab_model",
			"rotation":[
				0,
				-0.7071068286895752,
				-0.7071068286895752,
				1.00153539642818e-16
			]
		}
	],
	"materials":[
		{
			"doubleSided":true,
			"name":"Material.001",
			"normalTexture":{
				"index":0
			},
			"pbrMetallicRoughness":{
				"baseColorTexture":{
					"index":1
				},
				"metallicRoughnessTexture":{
					"index":2
				}
			}
		}
	],
	"meshes":[
		{
			"name":"Cube_Material_0",
			"primitives":[
				{
					"attributes":{
						"POSITION":0,
						"NORMAL":1,
						"TEXCOORD_0":2,
						"TEXCOORD_1":3,
						"TEXCOORD_2":4
					},
					"indices":5,
					"material":0
				}
			]
		},
		{
			"name":"Cube.001_Material_0",
			"primitives":[
				{
					"attributes":{
						"POSITION":6,
						"NORMAL":7,
						"TEXCOORD_0":8,
						"TEXCOORD_1":9,
						"TEXCOORD_2":10
					},
					"indices":11,
					"material":0
				}
			]
		},
		{
			"name":"Cylinder_Material_0",
			"primitives":[
				{
					"attributes":{
						"POSITION":12,
						"NORMAL":13,
						"TEXCOORD_0":14,
						"TEXCOORD_1":15,
						"TEXCOORD_2":16
					},
					"indices":17,
					"material":0
				}
			]
		},
		{
			"name":"Cylinder.001_Material_0",
			"primitives":[
				{
					"attributes":{
						"POSITION":18,
						"NORMAL":19,
						"TEXCOORD_0":20,
						"TEXCOORD_1":21,
						"TEXCOORD_2":22
					},
					"indices":23,
					"material":0
				}
			]
		},
		{
			"name":"Cylinder.002_Material_0",
			"primitives":[
				{
					"attributes":{
						"POSITION":24,
						"NORMAL":25,
						"TEXCOORD_0":26,
						"TEXCOORD_1":27,
						"TEXCOORD_2":28
					},
					"indices":29,
					"material":0
				}
			]
		},
		{
			"name":"Cylinder.003_Material_0",
			"primitives":[
				{
					"attributes":{
						"POSITION":30,
						"NORMAL":31,
						"TEXCOORD_0":32,
						"TEXCOORD_1":33,
						"TEXCOORD_2":34
					},
					"indices":35,
					"material":0
				}
			]
		},
		{
			"name":"Cylinder.004_Material_0",
			"primitives":[
				{
					"attributes":{
						"POSITION":36,
						"NORMAL":37,
						"TEXCOORD_0":38,
						"TEXCOORD_1":39,
						"TEXCOORD_2":40
					},
					"indices":41,
					"material":0
				}
			]
		}
	],
	"textures":[
		{
			"sampler":0,
			"source":0
		},
		{
			"sampler":0,
			"source":1
		},
		{
			"sampler":0,
			"source":2
		}
	],
	"images":[
		{
			"mimeType":"image/png",
			"name":"Material_normal",
			"uri":"Material_normal.png"
		},
		{
			"mimeType":"image/png",
			"name":"Material_baseColor",
			"uri":"Material_baseColor.png"
		},
		{
			"mimeType":"image/png",
			"name":"Material_metallicRoughness",
			"uri":"Material_metallicRoughness.png"
		}
	],
	"accessors":[
		{
			"bufferView":0,
			"componentType":5126,
			"count":108,
			"max":[
				0.5947206020355225,
				0.3643592298030853,
				0.016942739486694336
			],
			"min":[
				-0.5947206020355225,
				-0.3643592298030853,
				-0.012658799067139626
			],
			"type":"VEC3"
		},
		{
			"bufferView":1,
			"componentType":5126,
			"count":108,
			"type":"VEC3"
		},
		{
			"bufferView":2,
			"componentType":5126,
			"count":108,
			"type":"VEC2"
		},
		{
			"bufferView":3,
			"componentType":5126,
			"count":108,
			"type":"VEC2"
		},
		{
			"bufferView":4,
			"componentType":5126,
			"count":108,
			"type":"VEC2"
		},
		{
			"bufferView":5,
			"componentType":5123,
			"count":312,
			"type":"SCALAR"
		},
		{
			"bufferView":6,
			"componentType":5126,
			"count":126,
			"max":[
				0.49575063586235046,
				0.3241253197193146,
				0.11488243192434311
			],
			"min":[
				-0.49575063586235046,
				-0.3241253197193146,
				-0.12196700274944305
			],
			"type":"VEC3"
		},
		{
			"bufferView":7,
			"componentType":5126,
			"count":126,
			"type":"VEC3"
		},
		{
			"bufferView":8,
			"componentType":5126,
			"count":126,
			"type":"VEC2"
		},
		{
			"bufferView":9,
			"componentType":5126,
			"count":126,
			"type":"VEC2"
		},
		{
			"bufferView":10,
			"componentType":5126,
			"count":126,
			"type":"VEC2"
		},
		{
			"bufferView":11,
			"componentType":5123,
			"count":330,
			"type":"SCALAR"
		},
		{
			"bufferView":12,
			"componentType":5126,
			"count":616,
			"max":[
				0.028360355645418167,
				0.3659423291683197,
				0.01115705817937851
			],
			"min":[
				-1.0370726585388184,
				-0.3659423291683197,
				-1.0993788242340088
			],
			"type":"VEC3"
		},
		{
			"bufferView":13,
			"componentType":5126,
			"count":616,
			"type":"VEC3"
		},
		{
			"bufferView":14,
			"componentType":5126,
			"count":616,
			"type":"VEC2"
		},
		{
			"bufferView":15,
			"componentType":5126,
			"count":616,
			"type":"VEC2"
		},
		{
			"bufferView":16,
			"componentType":5126,
			"count":616,
			"type":"VEC2"
		},
		{
			"bufferView":17,
			"componentType":5123,
			"count":1536,
			"type":"SCALAR"
		},
		{
			"bufferView":18,
			"componentType":5126,
			"count":34,
			"max":[
				0.5072006583213806,
				0.010781737975776196,
				0.010781768709421158
			],
			"min":[
				-0.5072006583213806,
				-0.010781737975776196,
				-0.010781768709421158
			],
			"type":"VEC3"
		},
		{
			"bufferView":19,
			"componentType":5126,
			"count":34,
			"type":"VEC3"
		},
		{
			"bufferView":20,
			"componentType":5126,
			"count":34,
			"type":"VEC2"
		},
		{
			"bufferView":21,
			"componentType":5126,
			"count":34,
			"type":"VEC2"
		},
		{
			"bufferView":22,
			"componentType":5126,
			"count":34,
			"type":"VEC2"
		},
		{
			"bufferView":23,
			"componentType":5123,
			"count":84,
			"type":"SCALAR"
		},
		{
			"bufferView":24,
			"componentType":5126,
			"count":68,
			"max":[
				1.0189813375473022,
				0.38049089908599854,
				0.010781669989228249
			],
			"min":[
				-0.010781732387840748,
				-0.29078468680381775,
				-0.010781669989228249
			],
			"type":"VEC3"
		},
		{
			"bufferView":25,
			"componentType":5126,
			"count":68,
			"type":"VEC3"
		},
		{
			"bufferView":26,
			"componentType":5126,
			"count":68,
			"type":"VEC2"
		},
		{
			"bufferView":27,
			"componentType":5126,
			"count":68,
			"type":"VEC2"
		},
		{
			"bufferView":28,
			"componentType":5126,
			"count":68,
			"type":"VEC2"
		},
		{
			"bufferView":29,
			"componentType":5123,
			"count":168,
			"type":"SCALAR"
		},
		{
			"bufferView":30,
			"componentType":5126,
			"count":990,
			"max":[
				1.076830267906189,
				0.04347657412290573,
				0.014798660762608051
			],
			"min":[
				-0.06824979186058044,
				-0.04347657412290573,
				-0.1375628411769867
			],
			"type":"VEC3"
		},
		{
			"bufferView":31,
			"componentType":5126,
			"count":990,
			"type":"VEC3"
		},
		{
			"bufferView":32,
			"componentType":5126,
			"count":990,
			"type":"VEC2"
		},
		{
			"bufferView":33,
			"componentType":5126,
			"count":990,
			"type":"VEC2"
		},
		{
			"bufferView":34,
			"componentType":5126,
			"count":990,
			"type":"VEC2"
		},
		{
			"bufferView":35,
			"componentType":5123,
			"count":2184,
			"type":"SCALAR"
		},
		{
			"bufferView":36,
			"componentType":5126,
			"count":48,
			"max":[
				0.4966905117034912,
				0.016006428748369217,
				0.016006458550691605
			],
			"min":[
				-0.4966905117034912,
				-0.016006428748369217,
				-0.016006458550691605
			],
			"type":"VEC3"
		},
		{
			"bufferView":37,
			"componentType":5126,
			"count":48,
			"type":"VEC3"
		},
		{
			"bufferView":38,
			"componentType":5126,
			"count":48,
			"type":"VEC2"
		},
		{
			"bufferView":39,
			"componentType":5126,
			"count":48,
			"type":"VEC2"
		},
		{
			"bufferView":40,
			"componentType":5126,
			"count":48,
			"type":"VEC2"
		},
		{
			"bufferView":41,
			"componentType":5123,
			"count":84,
			"type":"SCALAR"
		}
	],
	"bufferViews":[
		{
			"buffer":0,
			"byteLength":1296,
			"byteOffset":0,
			"target":34962
		},
		{
			"buffer":0,
			"byteLength":1296,
			"byteOffset":1296,
			"target":34962
		},
		{
			"buffer":0,
			"byteLength":864,
			"byteOffset":2592,
			"target":34962
		},
		{
			"buffer":0,
			"byteLength":864,
			"byteOffset":3456,
			"target":34962
		},
		{
			"buffer":0,
			"byteLength":864,
			"byteOffset":4320,
			"target":34962
		},
		{
			"buffer":0,
			"byteLength":624,
			"byteOffset":5184,
			"target":34963
		},
		{
			"buffer":0,
			"byteLength":1512,
			"byteOffset":5808,
			"target":34962
		},
		{
			"buffer":0,
			"byteLength":1512,
			"byteOffset":7320,
			"target":34962
		},
		{
			"buffer":0,
			"byteLength":1008,
			"byteOffset":8832,
			"target":34962
		},
		{
			"buffer":0,
			"byteLength":1008,
			"byteOffset":9840,
			"target":34962
		},
		{
			"buffer":0,
			"byteLength":1008,
			"byteOffset":10848,
			"target":34962
		},
		{
			"buffer":0,
			"byteLength":660,
			"byteOffset":11856,
			"target":34963
		},
		{
			"buffer":0,
			"byteLength":7392,
			"byteOffset":12516,
			"target":34962
		},
		{
			"buffer":0,
			"byteLength":7392,
			"byteOffset":19908,
			"target":34962
		},
		{
			"buffer":0,
			"byteLength":4928,
			"byteOffset":27300,
			"target":34962
		},
		{
			"buffer":0,
			"byteLength":4928,
			"byteOffset":32228,
			"target":34962
		},
		{
			"buffer":0,
			"byteLength":4928,
			"byteOffset":37156,
			"target":34962
		},
		{
			"buffer":0,
			"byteLength":3072,
			"byteOffset":42084,
			"target":34963
		},
		{
			"buffer":0,
			"byteLength":408,
			"byteOffset":45156,
			"target":34962
		},
		{
			"buffer":0,
			"byteLength":408,
			"byteOffset":45564,
			"target":34962
		},
		{
			"buffer":0,
			"byteLength":272,
			"byteOffset":45972,
			"target":34962
		},
		{
			"buffer":0,
			"byteLength":272,
			"byteOffset":46244,
			"target":34962
		},
		{
			"buffer":0,
			"byteLength":272,
			"byteOffset":46516,
			"target":34962
		},
		{
			"buffer":0,
			"byteLength":168,
			"byteOffset":46788,
			"target":34963
		},
		{
			"buffer":0,
			"byteLength":816,
			"byteOffset":46956,
			"target":34962
		},
		{
			"buffer":0,
			"byteLength":816,
			"byteOffset":47772,
			"target":34962
		},
		{
			"buffer":0,
			"byteLength":544,
			"byteOffset":48588,
			"target":34962
		},
		{
			"buffer":0,
			"byteLength":544,
			"byteOffset":49132,
			"target":34962
		},
		{
			"buffer":0,
			"byteLength":544,
			"byteOffset":49676,
			"target":34962
		},
		{
			"buffer":0,
			"byteLength":336,
			"byteOffset":50220,
			"target":34963
		},
		{
			"buffer":0,
			"byteLength":11880,
			"byteOffset":50556,
			"target":34962
		},
		{
			"buffer":0,
			"byteLength":11880,
			"byteOffset":62436,
			"target":34962
		},
		{
			"buffer":0,
			"byteLength":7920,
			"byteOffset":74316,
			"target":34962
		},
		{
			"buffer":0,
			"byteLength":7920,
			"byteOffset":82236,
			"target":34962
		},
		{
			"buffer":0,
			"byteLength":7920,
			"byteOffset":90156,
			"target":34962
		},
		{
			"buffer":0,
			"byteLength":4368,
			"byteOffset":98076,
			"target":34963
		},
		{
			"buffer":0,
			"byteLength":576,
			"byteOffset":102444,
			"target":34962
		},
		{
			"buffer":0,
			"byteLength":576,
			"byteOffset":103020,
			"target":34962
		},
		{
			"buffer":0,
			"byteLength":384,
			"byteOffset":103596,
			"target":34962
		},
		{
			"buffer":0,
			"byteLength":384,
			"byteOffset":103980,
			"target":34962
		},
		{
			"buffer":0,
			"byteLength":384,
			"byteOffset":104364,
			"target":34962
		},
		{
			"buffer":0,
			"byteLength":168,
			"byteOffset":104748,
			"target":34963
		}
	],
	"samplers":[
		{
			"magFilter":9729,
			"minFilter":9987
		}
	],
	"buffers":[
		{
			"byteLength":104916,
			"uri":"banco.bin"
		}
	]
}
