{
	"asset":{
		"generator":"Khronos glTF Blender I/O v4.5.48",
		"version":"2.0"
	},
	"scene":0,
	"scenes":[
		{
			"name":"Scene",
			"nodes":[
				7
			]
		}
	],
	"nodes":[
		{
			"name":"book_a"
		},
		{
			"mesh":0,
			"name":"book_a_open_0"
		},
		{
			"mesh":1,
			"name":"book_a_open_1"
		},
		{
			"children":[
				1,
				2
			],
			"name":"book_a_open",
			"translation":[
				0,
				4,
				0
			]
		},
		{
			"name":"Lamp.001"
		},
		{
			"children":[
				4
			],
			"name":"Lamp",
			"rotation":[
				0.16907529532909393,
				0.27217087149620056,
				0.7558793425559998,
				0.5709494352340698
			],
			"scale":[
				0.9999976754188538,
				0.9999959468841553,
				0.9999961256980896
			],
			"translation":[
				4.076250076293945,
				1.0054500102996826,
				5.903860092163086
			]
		},
		{
			"children":[
				0,
				3,
				5
			],
			"name":"Root"
		},
		{
			"children":[
				6
			],
			"name":"Sketchfab_model",
			"rotation":[
				-0.70710688829422,
				0,
				0,
				0.7071066498756409
			]
		}
	],
	"materials":[
		{
			"doubleSided":true,
			"name":"book_a",
			"normalTexture":{
				"index":0,
				"scale":0.2631574869155884
			},
			"pbrMetallicRoughness":{
				"baseColorTexture":{
					"index":1
				},
				"metallicFactor":0,
				"roughnessFactor":0.9076558351516724
			}
		},
		{
			"doubleSided":true,
			"name":"book_a_pages",
			"pbrMetallicRoughness":{
				"baseColorTexture":{
					"index":2
				},
				"metallicFactor":0
			}
		}
	],
	"meshes":[
		{
			"name":"book_a_open_0",
			"primitives":[
				{
					"attributes":{
						"POSITION":0,
						"NORMAL":1,
						"TEXCOORD_0":2
					},
					"indices":3,
					"material":0
				}
			]
		},
		{
			"name":"book_a_open_1",
			"primitives":[
				{
					"attributes":{
						"POSITION":4,
						"NORMAL":5,
						"TEXCOORD_0":6
					},
					"indices":7,
					"material":1
				}
			]
		}
	],
	"textures":[
		{
			"sampler":0,
			"source":0
		},
		{
			"sampler":0,
			"source":1
		},
		{
			"sampler":0,
			"source":2
		}
	],
	"images":[
		{
			"mimeType":"image/png",
			"name":"book_a_normal",
			"uri":"book_a_normal.png"
		},
		{
			"mimeType":"image/png",
			"name":"book_a_baseColor",
			"uri":"book_a_baseColor.png"
		},
		{
			"mimeType":"image/png",
			"name":"book_a_pages_baseColor",
			"uri":"book_a_pages_baseColor.png"
		}
	],
	"accessors":[
		{
			"bufferView":0,
			"componentType":5126,
			"count":511,
			"max":[
				0.022770000621676445,
				28.171770095825195,
				3.1229500770568848
			],
			"min":[
				-20.074800491333008,
				0.09957999736070633,
				-0.029980000108480453
			],
			"type":"VEC3"
		},
		{
			"bufferView":1,
			"componentType":5126,
			"count":511,
			"type":"VEC3"
		},
		{
			"bufferView":2,
			"componentType":5126,
			"count":511,
			"type":"VEC2"
		},
		{
			"bufferView":3,
			"componentType":5123,
			"count":1800,
			"type":"SCALAR"
		},
		{
			"bufferView":4,
			"componentType":5126,
			"count":60,
			"max":[
				-0.34439000487327576,
				27.482789993286133,
				3.1229500770568848
			],
			"min":[
				-19.721149444580078,
				0.6662200093269348,
				2.000080108642578
			],
			"type":"VEC3"
		},
		{
			"bufferView":5,
			"componentType":5126,
			"count":60,
			"type":"VEC3"
		},
		{
			"bufferView":6,
			"componentType":5126,
			"count":60,
			"type":"VEC2"
		},
		{
			"bufferView":7,
			"componentType":5123,
			"count":240,
			"type":"SCALAR"
		}
	],
	"bufferViews":[
		{
			"buffer":0,
			"byteLength":6132,
			"byteOffset":0,
			"target":34962
		},
		{
			"buffer":0,
			"byteLength":6132,
			"byteOffset":6132,
			"target":34962
		},
		{
			"buffer":0,
			"byteLength":4088,
			"byteOffset":12264,
			"target":34962
		},
		{
			"buffer":0,
			"byteLength":3600,
			"byteOffset":16352,
			"target":34963
		},
		{
			"buffer":0,
			"byteLength":720,
			"byteOffset":19952,
			"target":34962
		},
		{
			"buffer":0,
			"byteLength":720,
			"byteOffset":20672,
			"target":34962
		},
		{
			"buffer":0,
			"byteLength":480,
			"byteOffset":21392,
			"target":34962
		},
		{
			"buffer":0,
			"byteLength":480,
			"byteOffset":21872,
			"target":34963
		}
	],
	"samplers":[
		{
			"magFilter":9729,
			"minFilter":9987
		}
	],
	"buffers":[
		{
			"byteLength":22352,
			"uri":"libro2.bin"
		}
	]
}
