{
	"asset":{
		"generator":"Khronos glTF Blender I/O v4.5.48",
		"version":"2.0"
	},
	"scene":0,
	"scenes":[
		{
			"name":"Scene",
			"nodes":[
				33
			]
		}
	],
	"nodes":[
		{
			"name":"mesh_22"
		},
		{
			"mesh":0,
			"name":"Object_10"
		},
		{
			"mesh":1,
			"name":"Object_11"
		},
		{
			"mesh":2,
			"name":"Object_7"
		},
		{
			"mesh":3,
			"name":"Object_8"
		},
		{
			"mesh":4,
			"name":"Object_9"
		},
		{
			"name":"mixamorig:Head_0",
			"rotation":[
				0.05722951889038086,
				-0.00040544747025705874,
				0.006393476855009794,
				0.9983404874801636
			],
			"scale":[
				1,
				1.0000001192092896,
				1
			],
			"translation":[
				-0.0015157732414081693,
				0.046712979674339294,
				0.012777167372405529
			]
		},
		{
			"children":[
				6
			],
			"name":"mixamorig:Neck_1",
			"rotation":[
				-0.04107119143009186,
				-0.0032279198057949543,
				0.04053012654185295,
				0.998328685760498
			],
			"scale":[
				0.9999999403953552,
				0.9999998211860657,
				0.9999998807907104
			],
			"translation":[
				8.801648050393851e-07,
				0.10729071497917175,
				-0.003181587904691696
			]
		},
		{
			"name":"mixamorig:LeftHand_2",
			"rotation":[
				0.10160472989082336,
				0.002871146658435464,
				0.01026920322328806,
				0.9947677254676819
			],
			"scale":[
				0.9999999403953552,
				1,
				0.9999999403953552
			],
			"translation":[
				0.010138382203876972,
				0.1409962922334671,
				-0.014184169471263885
			]
		},
		{
			"children":[
				8
			],
			"name":"mixamorig:LeftForeArm_3",
			"rotation":[
				-0.010251861996948719,
				0.03036165051162243,
				0.09194324910640717,
				0.9952484965324402
			],
			"scale":[
				1.0000001192092896,
				0.9999998807907104,
				0.9999999403953552
			],
			"translation":[
				0.003288800362497568,
				0.1044059470295906,
				0.0032984528224915266
			]
		},
		{
			"children":[
				9
			],
			"name":"mixamorig:LeftArm_4",
			"rotation":[
				-0.042630959302186966,
				0.2634525001049042,
				0.6382166147232056,
				0.7221183776855469
			],
			"scale":[
				1,
				1.0000001192092896,
				1
			],
			"translation":[
				0.0037260218523442745,
				0.08519880473613739,
				-0.011371866799890995
			]
		},
		{
			"children":[
				10
			],
			"name":"mixamorig:LeftShoulder_5",
			"rotation":[
				0.5994259715080261,
				0.3995668292045593,
				-0.5777551531791687,
				0.3837105333805084
			],
			"scale":[
				0.9999996423721313,
				0.9999997615814209,
				0.9999998807907104
			],
			"translation":[
				0.04016859084367752,
				0.09784112870693207,
				1.3678247341886163e-05
			]
		},
		{
			"name":"mixamorig:RightHand_6",
			"rotation":[
				0.013681700453162193,
				-0.0020449236035346985,
				-0.005666607990860939,
				0.9998882412910461
			],
			"scale":[
				1.0000001192092896,
				1,
				0.9999999403953552
			],
			"translation":[
				-0.012087168172001839,
				0.13745775818824768,
				-0.01810721680521965
			]
		},
		{
			"children":[
				12
			],
			"name":"mixamorig:RightForeArm_7",
			"rotation":[
				-0.0006130645633675158,
				-0.03438396379351616,
				-0.08733069151639938,
				0.9955856800079346
			],
			"scale":[
				0.9999999403953552,
				1,
				0.9999999403953552
			],
			"translation":[
				-0.004685348831117153,
				0.11111239343881607,
				-0.0018521584570407867
			]
		},
		{
			"children":[
				13
			],
			"name":"mixamorig:RightArm_8",
			"rotation":[
				-0.013888215646147728,
				-0.2965266704559326,
				-0.7013508677482605,
				0.6480633020401001
			],
			"scale":[
				1.0000001192092896,
				0.9999999403953552,
				1
			],
			"translation":[
				-0.003017678391188383,
				0.08284100890159607,
				-0.008018486201763153
			]
		},
		{
			"children":[
				14
			],
			"name":"mixamorig:RightShoulder_9",
			"rotation":[
				0.6132081747055054,
				-0.3766885995864868,
				0.5941817760467529,
				0.3592067360877991
			],
			"scale":[
				0.9999997615814209,
				0.9999997615814209,
				1
			],
			"translation":[
				-0.04627120867371559,
				0.09464673697948456,
				-0.00033796593197621405
			]
		},
		{
			"children":[
				7,
				11,
				15
			],
			"name":"mixamorig:Spine2_10",
			"rotation":[
				0.0029732349794358015,
				0.002131196903064847,
				-0.008161206729710102,
				0.9999600052833557
			],
			"scale":[
				1,
				1,
				0.9999999403953552
			],
			"translation":[
				-0.0004911053692921996,
				0.08139395713806152,
				0.0005426115239970386
			]
		},
		{
			"children":[
				16
			],
			"name":"mixamorig:Spine1_11",
			"rotation":[
				0.0016697790706530213,
				0.00042606229544617236,
				0.008653641678392887,
				0.9999610781669617
			],
			"scale":[
				1,
				1,
				0.9999999403953552
			],
			"translation":[
				-0.0015048966743052006,
				0.07051637023687363,
				-0.0008112264913506806
			]
		},
		{
			"children":[
				17
			],
			"name":"mixamorig:Spine_12",
			"rotation":[
				0.015656976029276848,
				-0.00011668655497487634,
				-0.03942779079079628,
				0.9990997314453125
			],
			"scale":[
				1,
				1,
				1.0000001192092896
			],
			"translation":[
				-0.0013022895436733961,
				0.058261387050151825,
				0.0026766962837427855
			]
		},
		{
			"name":"mixamorig:LeftToeBase_13",
			"rotation":[
				0.32850465178489685,
				-0.0017719728639349341,
				-0.01953895390033722,
				0.9442985653877258
			],
			"scale":[
				0.9999999403953552,
				1.0000001192092896,
				0.9999999403953552
			],
			"translation":[
				0.0013810880482196808,
				0.14408104121685028,
				-0.007361585274338722
			]
		},
		{
			"children":[
				19
			],
			"name":"mixamorig:LeftFoot_14",
			"rotation":[
				0.4259865880012512,
				-0.034242141991853714,
				0.008449427783489227,
				0.9040417671203613
			],
			"translation":[
				0.002679265569895506,
				0.22539137303829193,
				0.0021212478168308735
			]
		},
		{
			"children":[
				20
			],
			"name":"mixamorig:LeftLeg_15",
			"rotation":[
				-0.6320869326591492,
				0.031687069684267044,
				-0.008611105382442474,
				0.774201512336731
			],
			"scale":[
				0.9999999403953552,
				0.9999998807907104,
				0.9999998211860657
			],
			"translation":[
				0.0018055419204756618,
				0.24916990101337433,
				0.0034669828601181507
			]
		},
		{
			"children":[
				21
			],
			"name":"mixamorig:LeftUpLeg_16",
			"rotation":[
				-0.029614700004458427,
				-0.6622540354728699,
				-0.748609185218811,
				0.011267482303082943
			],
			"scale":[
				0.9999999403953552,
				1,
				1
			],
			"translation":[
				0.061540741473436356,
				-0.024676555767655373,
				-0.009587693028151989
			]
		},
		{
			"name":"mixamorig:RightToeBase_17",
			"rotation":[
				0.3265587389469147,
				-0.004828174132853746,
				-0.003524552332237363,
				0.9451580047607422
			],
			"scale":[
				0.9999999403953552,
				1.0000001192092896,
				1
			],
			"translation":[
				0.0017028870061039925,
				0.1441708654165268,
				-0.006344948895275593
			]
		},
		{
			"children":[
				23
			],
			"name":"mixamorig:RightFoot_18",
			"rotation":[
				0.4324130415916443,
				0.02371426858007908,
				0.0065710232593119144,
				0.9013398289680481
			],
			"translation":[
				0.0023855457548052073,
				0.22202560305595398,
				0.0023981204722076654
			]
		},
		{
			"children":[
				24
			],
			"name":"mixamorig:RightLeg_19",
			"rotation":[
				-0.6219070553779602,
				-0.017936676740646362,
				0.0016770873917266726,
				0.7828838229179382
			],
			"scale":[
				0.9999999403953552,
				0.9999999403953552,
				1
			],
			"translation":[
				0.0007868700777180493,
				0.23661553859710693,
				-0.0021308499854058027
			]
		},
		{
			"children":[
				25
			],
			"name":"mixamorig:RightUpLeg_20",
			"rotation":[
				-0.0016920106718316674,
				0.6592374444007874,
				0.7517217397689819,
				0.01782105676829815
			],
			"scale":[
				1,
				0.9999997615814209,
				0.9999999403953552
			],
			"translation":[
				-0.051528628915548325,
				-0.02426987886428833,
				0.0014964563306421041
			]
		},
		{
			"children":[
				18,
				22,
				26
			],
			"name":"mixamorig:Hips_21",
			"rotation":[
				-0.03955847769975662,
				-0.00047346920473501086,
				0.011958008632063866,
				0.9991456270217896
			],
			"scale":[
				0.9999999403953552,
				0.9999999403953552,
				0.9999999403953552
			],
			"translation":[
				-0.0070152273401618,
				0.012252806685864925,
				-0.012016289867460728
			]
		},
		{
			"children":[
				27
			],
			"name":"GLTF_created_0_rootJoint",
			"rotation":[
				-8.557136332854043e-09,
				2.4203236748121526e-08,
				-4.1422078995684666e-16,
				1
			]
		},
		{
			"children":[
				0,
				1,
				2,
				3,
				4,
				5,
				28
			],
			"name":"GLTF_created_0"
		},
		{
			"children":[
				29
			],
			"name":"Armature_23"
		},
		{
			"children":[
				30
			],
			"name":"GLTF_SceneRootNode",
			"rotation":[
				0.70710688829422,
				0,
				0,
				0.7071066498756409
			]
		},
		{
			"children":[
				31
			],
			"name":"root"
		},
		{
			"children":[
				32
			],
			"name":"Sketchfab_model",
			"rotation":[
				-0.70710688829422,
				0,
				0,
				0.7071066498756409
			]
		}
	],
	"materials":[
		{
			"doubleSided":true,
			"name":"Material.002",
			"normalTexture":{
				"index":0,
				"texCoord":2
			},
			"pbrMetallicRoughness":{
				"baseColorTexture":{
					"index":1
				},
				"metallicRoughnessTexture":{
					"index":2,
					"texCoord":1
				}
			}
		}
	],
	"meshes":[
		{
			"name":"Object_3",
			"primitives":[
				{
					"attributes":{
						"POSITION":0,
						"NORMAL":1,
						"TEXCOORD_0":2,
						"TEXCOORD_1":3,
						"TEXCOORD_2":4,
						"TEXCOORD_3":5
					},
					"indices":6,
					"material":0
				}
			]
		},
		{
			"name":"Object_4",
			"primitives":[
				{
					"attributes":{
						"POSITION":7,
						"NORMAL":8,
						"TEXCOORD_0":9,
						"TEXCOORD_1":10,
						"TEXCOORD_2":11,
						"TEXCOORD_3":12
					},
					"indices":13,
					"material":0
				}
			]
		},
		{
			"name":"Object_0.002",
			"primitives":[
				{
					"attributes":{
						"POSITION":14,
						"NORMAL":15,
						"TEXCOORD_0":16,
						"TEXCOORD_1":17,
						"TEXCOORD_2":18,
						"TEXCOORD_3":19
					},
					"indices":20,
					"material":0
				}
			]
		},
		{
			"name":"Object_1",
			"primitives":[
				{
					"attributes":{
						"POSITION":21,
						"NORMAL":22,
						"TEXCOORD_0":23,
						"TEXCOORD_1":24,
						"TEXCOORD_2":25,
						"TEXCOORD_3":26
					},
					"indices":27,
					"material":0
				}
			]
		},
		{
			"name":"Object_2",
			"primitives":[
				{
					"attributes":{
						"POSITION":28,
						"NORMAL":29,
						"TEXCOORD_0":30,
						"TEXCOORD_1":31,
						"TEXCOORD_2":32,
						"TEXCOORD_3":33
					},
					"indices":34,
					"material":0
				}
			]
		}
	],
	"textures":[
		{
			"sampler":0,
			"source":0
		},
		{
			"sampler":0,
			"source":1
		},
		{
			"sampler":0,
			"source":2
		}
	],
	"images":[
		{
			"mimeType":"image/png",
			"name":"Material.002_normal",
			"uri":"Material.002_normal.png"
		},
		{
			"mimeType":"image/png",
			"name":"Material.002_baseColor",
			"uri":"Material.002_baseColor.png"
		},
		{
			"mimeType":"image/png",
			"name":"Material.002_metallicRoughness",
			"uri":"Material.002_metallicRoughness.png"
		}
	],
	"skins":[
		{
			"inverseBindMatrices":35,
			"joints":[
				28,
				27,
				18,
				17,
				16,
				7,
				6,
				11,
				10,
				9,
				8,
				15,
				14,
				13,
				12,
				22,
				21,
				20,
				19,
				26,
				25,
				24,
				23
			],
			"name":"GLTF_created_0"
		}
	],
	"accessors":[
		{
			"bufferView":0,
			"componentType":5126,
			"count":65580,
			"max":[
				0.08345462381839752,
				0.5827317833900452,
				0.4501221179962158
			],
			"min":[
				-0.12363938242197037,
				-0.35078591108322144,
				-0.1001148596405983
			],
			"type":"VEC3"
		},
		{
			"bufferView":1,
			"componentType":5126,
			"count":65580,
			"type":"VEC3"
		},
		{
			"bufferView":2,
			"componentType":5126,
			"count":65580,
			"type":"VEC2"
		},
		{
			"bufferView":3,
			"componentType":5126,
			"count":65580,
			"type":"VEC2"
		},
		{
			"bufferView":4,
			"componentType":5126,
			"count":65580,
			"type":"VEC2"
		},
		{
			"bufferView":5,
			"componentType":5126,
			"count":65580,
			"type":"VEC2"
		},
		{
			"bufferView":6,
			"componentType":5125,
			"count":321066,
			"type":"SCALAR"
		},
		{
			"bufferView":7,
			"componentType":5126,
			"count":39226,
			"max":[
				0.11833029240369797,
				0.4661337733268738,
				0.4500771760940552
			],
			"min":[
				-0.11764375120401382,
				-0.35079455375671387,
				-0.0949578806757927
			],
			"type":"VEC3"
		},
		{
			"bufferView":8,
			"componentType":5126,
			"count":39226,
			"type":"VEC3"
		},
		{
			"bufferView":9,
			"componentType":5126,
			"count":39226,
			"type":"VEC2"
		},
		{
			"bufferView":10,
			"componentType":5126,
			"count":39226,
			"type":"VEC2"
		},
		{
			"bufferView":11,
			"componentType":5126,
			"count":39226,
			"type":"VEC2"
		},
		{
			"bufferView":12,
			"componentType":5126,
			"count":39226,
			"type":"VEC2"
		},
		{
			"bufferView":13,
			"componentType":5123,
			"count":209613,
			"type":"SCALAR"
		},
		{
			"bufferView":14,
			"componentType":5126,
			"count":65732,
			"max":[
				0.18183282017707825,
				0.4171718657016754,
				0.37623023986816406
			],
			"min":[
				-0.11170930415391922,
				-0.037318333983421326,
				-0.14057286083698273
			],
			"type":"VEC3"
		},
		{
			"bufferView":15,
			"componentType":5126,
			"count":65732,
			"type":"VEC3"
		},
		{
			"bufferView":16,
			"componentType":5126,
			"count":65732,
			"type":"VEC2"
		},
		{
			"bufferView":17,
			"componentType":5126,
			"count":65732,
			"type":"VEC2"
		},
		{
			"bufferView":18,
			"componentType":5126,
			"count":65732,
			"type":"VEC2"
		},
		{
			"bufferView":19,
			"componentType":5126,
			"count":65732,
			"type":"VEC2"
		},
		{
			"bufferView":20,
			"componentType":5125,
			"count":331617,
			"type":"SCALAR"
		},
		{
			"bufferView":21,
			"componentType":5126,
			"count":65706,
			"max":[
				0.12351624667644501,
				0.41723188757896423,
				0.4210905134677887
			],
			"min":[
				-0.17622077465057373,
				-0.33338701725006104,
				-0.14024686813354492
			],
			"type":"VEC3"
		},
		{
			"bufferView":22,
			"componentType":5126,
			"count":65706,
			"type":"VEC3"
		},
		{
			"bufferView":23,
			"componentType":5126,
			"count":65706,
			"type":"VEC2"
		},
		{
			"bufferView":24,
			"componentType":5126,
			"count":65706,
			"type":"VEC2"
		},
		{
			"bufferView":25,
			"componentType":5126,
			"count":65706,
			"type":"VEC2"
		},
		{
			"bufferView":26,
			"componentType":5126,
			"count":65706,
			"type":"VEC2"
		},
		{
			"bufferView":27,
			"componentType":5125,
			"count":324471,
			"type":"SCALAR"
		},
		{
			"bufferView":28,
			"componentType":5126,
			"count":65632,
			"max":[
				0.12280122935771942,
				0.5834267735481262,
				0.4267405867576599
			],
			"min":[
				-0.08100398629903793,
				-0.3506333827972412,
				-0.11695888638496399
			],
			"type":"VEC3"
		},
		{
			"bufferView":29,
			"componentType":5126,
			"count":65632,
			"type":"VEC3"
		},
		{
			"bufferView":30,
			"componentType":5126,
			"count":65632,
			"type":"VEC2"
		},
		{
			"bufferView":31,
			"componentType":5126,
			"count":65632,
			"type":"VEC2"
		},
		{
			"bufferView":32,
			"componentType":5126,
			"count":65632,
			"type":"VEC2"
		},
		{
			"bufferView":33,
			"componentType":5126,
			"count":65632,
			"type":"VEC2"
		},
		{
			"bufferView":34,
			"componentType":5125,
			"count":313101,
			"type":"SCALAR"
		},
		{
			"bufferView":35,
			"componentType":5126,
			"count":23,
			"type":"MAT4"
		}
	],
	"bufferViews":[
		{
			"buffer":0,
			"byteLength":786960,
			"byteOffset":0,
			"target":34962
		},
		{
			"buffer":0,
			"byteLength":786960,
			"byteOffset":786960,
			"target":34962
		},
		{
			"buffer":0,
			"byteLength":524640,
			"byteOffset":1573920,
			"target":34962
		},
		{
			"buffer":0,
			"byteLength":524640,
			"byteOffset":2098560,
			"target":34962
		},
		{
			"buffer":0,
			"byteLength":524640,
			"byteOffset":2623200,
			"target":34962
		},
		{
			"buffer":0,
			"byteLength":524640,
			"byteOffset":3147840,
			"target":34962
		},
		{
			"buffer":0,
			"byteLength":1284264,
			"byteOffset":3672480,
			"target":34963
		},
		{
			"buffer":0,
			"byteLength":470712,
			"byteOffset":4956744,
			"target":34962
		},
		{
			"buffer":0,
			"byteLength":470712,
			"byteOffset":5427456,
			"target":34962
		},
		{
			"buffer":0,
			"byteLength":313808,
			"byteOffset":5898168,
			"target":34962
		},
		{
			"buffer":0,
			"byteLength":313808,
			"byteOffset":6211976,
			"target":34962
		},
		{
			"buffer":0,
			"byteLength":313808,
			"byteOffset":6525784,
			"target":34962
		},
		{
			"buffer":0,
			"byteLength":313808,
			"byteOffset":6839592,
			"target":34962
		},
		{
			"buffer":0,
			"byteLength":419226,
			"byteOffset":7153400,
			"target":34963
		},
		{
			"buffer":0,
			"byteLength":788784,
			"byteOffset":7572628,
			"target":34962
		},
		{
			"buffer":0,
			"byteLength":788784,
			"byteOffset":8361412,
			"target":34962
		},
		{
			"buffer":0,
			"byteLength":525856,
			"byteOffset":9150196,
			"target":34962
		},
		{
			"buffer":0,
			"byteLength":525856,
			"byteOffset":9676052,
			"target":34962
		},
		{
			"buffer":0,
			"byteLength":525856,
			"byteOffset":10201908,
			"target":34962
		},
		{
			"buffer":0,
			"byteLength":525856,
			"byteOffset":10727764,
			"target":34962
		},
		{
			"buffer":0,
			"byteLength":1326468,
			"byteOffset":11253620,
			"target":34963
		},
		{
			"buffer":0,
			"byteLength":788472,
			"byteOffset":12580088,
			"target":34962
		},
		{
			"buffer":0,
			"byteLength":788472,
			"byteOffset":13368560,
			"target":34962
		},
		{
			"buffer":0,
			"byteLength":525648,
			"byteOffset":14157032,
			"target":34962
		},
		{
			"buffer":0,
			"byteLength":525648,
			"byteOffset":14682680,
			"target":34962
		},
		{
			"buffer":0,
			"byteLength":525648,
			"byteOffset":15208328,
			"target":34962
		},
		{
			"buffer":0,
			"byteLength":525648,
			"byteOffset":15733976,
			"target":34962
		},
		{
			"buffer":0,
			"byteLength":1297884,
			"byteOffset":16259624,
			"target":34963
		},
		{
			"buffer":0,
			"byteLength":787584,
			"byteOffset":17557508,
			"target":34962
		},
		{
			"buffer":0,
			"byteLength":787584,
			"byteOffset":18345092,
			"target":34962
		},
		{
			"buffer":0,
			"byteLength":525056,
			"byteOffset":19132676,
			"target":34962
		},
		{
			"buffer":0,
			"byteLength":525056,
			"byteOffset":19657732,
			"target":34962
		},
		{
			"buffer":0,
			"byteLength":525056,
			"byteOffset":20182788,
			"target":34962
		},
		{
			"buffer":0,
			"byteLength":525056,
			"byteOffset":20707844,
			"target":34962
		},
		{
			"buffer":0,
			"byteLength":1252404,
			"byteOffset":21232900,
			"target":34963
		},
		{
			"buffer":0,
			"byteLength":1472,
			"byteOffset":22485304
		}
	],
	"samplers":[
		{
			"magFilter":9729,
			"minFilter":9987
		}
	],
	"buffers":[
		{
			"byteLength":22486776,
			"uri":"personaje1glb.bin"
		}
	]
}
