{
  "accessors": [
    {
      "bufferView": 2,
      "componentType": 5126,
      "count": 210,
      "max": [
        308.6099853515625,
        -13.970000267028809,
        5.715000152587891
      ],
      "min": [
        -11.430000305175781,
        -74.93000030517578,
        5.715000152587891
      ],
      "type": "VEC3"
    },
    {
      "bufferView": 2,
      "byteOffset": 2520,
      "componentType": 5126,
      "count": 210,
      "max": [
        0.0,
        -0.0,
        1.0
      ],
      "min": [
        0.0,
        -0.0,
        1.0
      ],
      "type": "VEC3"
    },
    {
      "bufferView": 1,
      "componentType": 5126,
      "count": 210,
      "max": [
        -77.47000122070313,
        54.6099967956543
      ],
      "min": [
        -138.42999267578125,
        -265.42999267578125
      ],
      "type": "VEC2"
    },
    {
      "bufferView": 0,
      "componentType": 5125,
      "count": 1044,
      "type": "SCALAR"
    },
    {
      "bufferView": 2,
      "byteOffset": 5040,
      "componentType": 5126,
      "count": 696,
      "max": [
        300.9900207519531,
        -1.701799988746643,
        72.1613998413086
      ],
      "min": [
        -3.809999942779541,
        -12.268199920654297,
        61.595001220703125
      ],
      "type": "VEC3"
    },
    {
      "bufferView": 2,
      "byteOffset": 13392,
      "componentType": 5126,
      "count": 696,
      "max": [
        1.0,
        1.0,
        1.0
      ],
      "min": [
        -1.0,
        -1.0,
        -1.0
      ],
      "type": "VEC3"
    },
    {
      "bufferView": 1,
      "byteOffset": 1680,
      "componentType": 5126,
      "count": 696,
      "max": [
        10.566399574279785,
        304.8000183105469
      ],
      "min": [
        -5.283199787139893,
        -5.283199787139893
      ],
      "type": "VEC2"
    },
    {
      "bufferView": 0,
      "byteOffset": 4176,
      "componentType": 5125,
      "count": 2004,
      "type": "SCALAR"
    },
    {
      "bufferView": 2,
      "byteOffset": 21744,
      "componentType": 5126,
      "count": 1208,
      "max": [
        297.17999267578125,
        0.0,
        227.1013946533203
      ],
      "min": [
        0.0,
        -7.619999885559082,
        5.715000152587891
      ],
      "type": "VEC3"
    },
    {
      "bufferView": 2,
      "byteOffset": 36240,
      "componentType": 5126,
      "count": 1208,
      "max": [
        1.0,
        0.0,
        1.0
      ],
      "min": [
        -1.0,
        -1.0,
        -1.0
      ],
      "type": "VEC3"
    },
    {
      "bufferView": 1,
      "byteOffset": 7248,
      "componentType": 5126,
      "count": 1208,
      "max": [
        297.17999267578125,
        148.58999633789063
      ],
      "min": [
        -76.83499908447266,
        -148.58999633789063
      ],
      "type": "VEC2"
    },
    {
      "bufferView": 0,
      "byteOffset": 12192,
      "componentType": 5125,
      "count": 3504,
      "type": "SCALAR"
    },
    {
      "bufferView": 2,
      "byteOffset": 50736,
      "componentType": 5126,
      "count": 630,
      "max": [
        308.6099853515625,
        -13.970000267028809,
        4.445000171661377
      ],
      "min": [
        -11.430000305175781,
        -74.93000030517578,
        3.174999952316284
      ],
      "type": "VEC3"
    },
    {
      "bufferView": 2,
      "byteOffset": 58296,
      "componentType": 5126,
      "count": 630,
      "max": [
        0.0,
        -0.0,
        1.0
      ],
      "min": [
        0.0,
        -0.0,
        -1.0
      ],
      "type": "VEC3"
    },
    {
      "bufferView": 1,
      "byteOffset": 16912,
      "componentType": 5126,
      "count": 630,
      "max": [
        138.42999267578125,
        54.6099967956543
      ],
      "min": [
        -138.42999267578125,
        -265.42999267578125
      ],
      "type": "VEC2"
    },
    {
      "bufferView": 0,
      "byteOffset": 26208,
      "componentType": 5125,
      "count": 3132,
      "type": "SCALAR"
    },
    {
      "bufferView": 2,
      "byteOffset": 65856,
      "componentType": 5126,
      "count": 1524,
      "max": [
        291.4649963378906,
        0.0,
        221.3863983154297
      ],
      "min": [
        5.715000152587891,
        -1.9049999713897705,
        11.430000305175781
      ],
      "type": "VEC3"
    },
    {
      "bufferView": 2,
      "byteOffset": 84144,
      "componentType": 5126,
      "count": 1524,
      "max": [
        1.0,
        1.0,
        1.0
      ],
      "min": [
        -1.0,
        -1.0,
        -1.0
      ],
      "type": "VEC3"
    },
    {
      "bufferView": 1,
      "byteOffset": 21952,
      "componentType": 5126,
      "count": 1524,
      "max": [
        142.24000549316406,
        71.12000274658203
      ],
      "min": [
        -71.12000274658203,
        -71.12000274658203
      ],
      "type": "VEC2"
    },
    {
      "bufferView": 0,
      "byteOffset": 38736,
      "componentType": 5125,
      "count": 6192,
      "type": "SCALAR"
    },
    {
      "bufferView": 2,
      "byteOffset": 102432,
      "componentType": 5126,
      "count": 4407,
      "max": [
        308.6099853515625,
        0.0,
        230.91139221191406
      ],
      "min": [
        -11.430000305175781,
        -74.93000030517578,
        -0.0
      ],
      "type": "VEC3"
    },
    {
      "bufferView": 2,
      "byteOffset": 155316,
      "componentType": 5126,
      "count": 4407,
      "max": [
        1.0,
        1.0,
        1.0
      ],
      "min": [
        -1.0,
        -1.0,
        -1.0
      ],
      "type": "VEC3"
    },
    {
      "bufferView": 1,
      "byteOffset": 34144,
      "componentType": 5126,
      "count": 4407,
      "max": [
        519.4299926757813,
        430.5299987792969
      ],
      "min": [
        -160.01998901367188,
        -265.42999267578125
      ],
      "type": "VEC2"
    },
    {
      "bufferView": 0,
      "byteOffset": 63504,
      "componentType": 5125,
      "count": 14916,
      "type": "SCALAR"
    },
    {
      "bufferView": 2,
      "byteOffset": 208200,
      "componentType": 5126,
      "count": 464,
      "max": [
        300.9900207519531,
        -3.809999942779541,
        71.45020294189453
      ],
      "min": [
        -3.810015916824341,
        -10.15999984741211,
        62.30619812011719
      ],
      "type": "VEC3"
    },
    {
      "bufferView": 2,
      "byteOffset": 213768,
      "componentType": 5126,
      "count": 464,
      "max": [
        1.0,
        1.0,
        1.0
      ],
      "min": [
        -1.0,
        -1.0,
        -1.0
      ],
      "type": "VEC3"
    },
    {
      "bufferView": 1,
      "byteOffset": 69400,
      "componentType": 5126,
      "count": 464,
      "max": [
        304.8000183105469,
        304.8000183105469
      ],
      "min": [
        -304.8000183105469,
        0.0
      ],
      "type": "VEC2"
    },
    {
      "bufferView": 0,
      "byteOffset": 123168,
      "componentType": 5125,
      "count": 1320,
      "type": "SCALAR"
    },
    {
      "bufferView": 2,
      "byteOffset": 219336,
      "componentType": 5126,
      "count": 398,
      "max": [
        297.17999267578125,
        0.0,
        227.1013946533203
      ],
      "min": [
        0.0,
        0.0,
        5.715000152587891
      ],
      "type": "VEC3"
    },
    {
      "bufferView": 2,
      "byteOffset": 224112,
      "componentType": 5126,
      "count": 398,
      "max": [
        -0.0,
        1.0,
        0.0
      ],
      "min": [
        -0.0,
        1.0,
        0.0
      ],
      "type": "VEC3"
    },
    {
      "bufferView": 1,
      "byteOffset": 73112,
      "componentType": 5126,
      "count": 398,
      "max": [
        148.58999633789063,
        76.83499908447266
      ],
      "min": [
        -148.58999633789063,
        -76.83499908447266
      ],
      "type": "VEC2"
    },
    {
      "bufferView": 0,
      "byteOffset": 128448,
      "componentType": 5125,
      "count": 1296,
      "type": "SCALAR"
    },
    {
      "bufferView": 2,
      "byteOffset": 228888,
      "componentType": 5126,
      "count": 804,
      "max": [
        308.6099853515625,
        -13.970000267028809,
        5.715000152587891
      ],
      "min": [
        -11.430000305175781,
        -74.93000030517578,
        1.9049999713897705
      ],
      "type": "VEC3"
    },
    {
      "bufferView": 2,
      "byteOffset": 238536,
      "componentType": 5126,
      "count": 804,
      "max": [
        1.0,
        1.0,
        -0.0
      ],
      "min": [
        -1.0,
        -1.0,
        -1.0
      ],
      "type": "VEC3"
    },
    {
      "bufferView": 1,
      "byteOffset": 76296,
      "componentType": 5126,
      "count": 804,
      "max": [
        316.22998046875,
        54.6099967956543
      ],
      "min": [
        -160.01998901367188,
        -265.42999267578125
      ],
      "type": "VEC2"
    },
    {
      "bufferView": 0,
      "byteOffset": 133632,
      "componentType": 5125,
      "count": 3348,
      "type": "SCALAR"
    }
  ],
  "asset": {
    "extras": {
      "author": "tprevis (https://sketchfab.com/tprevis)",
      "license": "SKETCHFAB Standard (https://sketchfab.com/licenses)",
      "source": "https://sketchfab.com/3d-models/window-assembly-long-wall-v2-038b59a49e90461baf74e6a200037d60",
      "title": "Window Assembly (Long Wall) v2"
    },
    "generator": "Sketchfab-16.67.0",
    "version": "2.0"
  },
  "bufferViews": [
    {
      "buffer": 0,
      "byteLength": 147024,
      "name": "floatBufferViews",
      "target": 34963
    },
    {
      "buffer": 0,
      "byteLength": 82728,
      "byteOffset": 147024,
      "byteStride": 8,
      "name": "floatBufferViews",
      "target": 34962
    },
    {
      "buffer": 0,
      "byteLength": 248184,
      "byteOffset": 229752,
      "byteStride": 12,
      "name": "floatBufferViews",
      "target": 34962
    }
  ],
  "buffers": [
    {
      "byteLength": 477936,
      "uri": "scene.bin"
    }
  ],
  "materials": [
    {
      "doubleSided": true,
      "name": "3D_Pine_-_Stained_light_semigloss",
      "pbrMetallicRoughness": {
        "baseColorFactor": [
          0.713725,
          0.494118,
          0.262745,
          1.0
        ],
        "metallicFactor": 0.0
      }
    },
    {
      "doubleSided": true,
      "name": "Concrete",
      "pbrMetallicRoughness": {
        "baseColorFactor": [
          0.0,
          0.0,
          0.0,
          1.0
        ],
        "metallicFactor": 0.0
      }
    },
    {
      "doubleSided": true,
      "name": "Concrete_-_Tiles",
      "pbrMetallicRoughness": {
        "baseColorFactor": [
          0.0,
          0.0,
          0.0,
          1.0
        ],
        "metallicFactor": 0.0
      }
    },
    {
      "alphaMode": "BLEND",
      "doubleSided": true,
      "name": "Glass_-_Window",
      "pbrMetallicRoughness": {
        "baseColorFactor": [
          0.423529,
          0.7686270000000003,
          0.8549019999999998,
          0.17523862929867975
        ],
        "metallicFactor": 0.0
      }
    },
    {
      "doubleSided": true,
      "name": "Pine",
      "pbrMetallicRoughness": {
        "baseColorFactor": [
          0.0,
          0.0,
          0.0,
          1.0
        ],
        "metallicFactor": 0.0
      }
    },
    {
      "doubleSided": true,
      "name": "Polystyrene",
      "pbrMetallicRoughness": {
        "baseColorFactor": [
          0.992157,
          0.721569,
          1.0,
          1.0
        ],
        "metallicFactor": 0.0
      }
    },
    {
      "doubleSided": true,
      "name": "Powder_Coat_-_Rough_Black",
      "pbrMetallicRoughness": {
        "baseColorFactor": [
          0.098039,
          0.098039,
          0.098039,
          1.0
        ],
        "metallicFactor": 0.0
      }
    },
    {
      "doubleSided": true,
      "name": "Powder_Coat_-_Rough_White",
      "pbrMetallicRoughness": {
        "baseColorFactor": [
          0.964706,
          0.964706,
          0.952941,
          1.0
        ],
        "metallicFactor": 0.0
      }
    },
    {
      "doubleSided": true,
      "name": "Steel_-_Satin",
      "pbrMetallicRoughness": {
        "baseColorFactor": [
          0.627451,
          0.627451,
          0.627451,
          1.0
        ],
        "metallicFactor": 0.0
      }
    }
  ],
  "meshes": [
    {
      "name": "Object_0",
      "primitives": [
        {
          "attributes": {
            "NORMAL": 1,
            "POSITION": 0,
            "TEXCOORD_0": 2
          },
          "indices": 3,
          "material": 2,
          "mode": 4
        }
      ]
    },
    {
      "name": "Object_1",
      "primitives": [
        {
          "attributes": {
            "NORMAL": 5,
            "POSITION": 4,
            "TEXCOORD_0": 6
          },
          "indices": 7,
          "material": 7,
          "mode": 4
        }
      ]
    },
    {
      "name": "Object_2",
      "primitives": [
        {
          "attributes": {
            "NORMAL": 9,
            "POSITION": 8,
            "TEXCOORD_0": 10
          },
          "indices": 11,
          "material": 0,
          "mode": 4
        }
      ]
    },
    {
      "name": "Object_3",
      "primitives": [
        {
          "attributes": {
            "NORMAL": 13,
            "POSITION": 12,
            "TEXCOORD_0": 14
          },
          "indices": 15,
          "material": 1,
          "mode": 4
        }
      ]
    },
    {
      "name": "Object_4",
      "primitives": [
        {
          "attributes": {
            "NORMAL": 17,
            "POSITION": 16,
            "TEXCOORD_0": 18
          },
          "indices": 19,
          "material": 3,
          "mode": 4
        }
      ]
    },
    {
      "name": "Object_5",
      "primitives": [
        {
          "attributes": {
            "NORMAL": 21,
            "POSITION": 20,
            "TEXCOORD_0": 22
          },
          "indices": 23,
          "material": 4,
          "mode": 4
        }
      ]
    },
    {
      "name": "Object_6",
      "primitives": [
        {
          "attributes": {
            "NORMAL": 25,
            "POSITION": 24,
            "TEXCOORD_0": 26
          },
          "indices": 27,
          "material": 5,
          "mode": 4
        }
      ]
    },
    {
      "name": "Object_7",
      "primitives": [
        {
          "attributes": {
            "NORMAL": 29,
            "POSITION": 28,
            "TEXCOORD_0": 30
          },
          "indices": 31,
          "material": 6,
          "mode": 4
        }
      ]
    },
    {
      "name": "Object_8",
      "primitives": [
        {
          "attributes": {
            "NORMAL": 33,
            "POSITION": 32,
            "TEXCOORD_0": 34
          },
          "indices": 35,
          "material": 8,
          "mode": 4
        }
      ]
    }
  ],
  "nodes": [
    {
      "children": [
        1
      ],
      "matrix": [
        1.0,
        0.0,
        0.0,
        0.0,
        0.0,
        2.220446049250313e-16,
        -1.0,
        0.0,
        0.0,
        1.0,
        2.220446049250313e-16,
        0.0,
        0.0,
        0.0,
        0.0,
        1.0
      ],
      "name": "Sketchfab_model"
    },
    {
      "children": [
        2,
        3,
        4,
        5,
        6,
        7,
        8,
        9,
        10
      ],
      "name": "Window Assembly (Long Wall) v2.obj.cleaner.materialmerger.gles"
    },
    {
      "mesh": 0,
      "name": "Object_2"
    },
    {
      "mesh": 1,
      "name": "Object_3"
    },
    {
      "mesh": 2,
      "name": "Object_4"
    },
    {
      "mesh": 3,
      "name": "Object_5"
    },
    {
      "mesh": 4,
      "name": "Object_6"
    },
    {
      "mesh": 5,
      "name": "Object_7"
    },
    {
      "mesh": 6,
      "name": "Object_8"
    },
    {
      "mesh": 7,
      "name": "Object_9"
    },
    {
      "mesh": 8,
      "name": "Object_10"
    }
  ],
  "scene": 0,
  "scenes": [
    {
      "name": "Sketchfab_Scene",
      "nodes": [
        0
      ]
    }
  ]
}
