{
	"asset":{
		"generator":"Khronos glTF Blender I/O v4.5.48",
		"version":"2.0"
	},
	"scene":0,
	"scenes":[
		{
			"name":"Scene",
			"nodes":[
				15
			]
		}
	],
	"nodes":[
		{
			"name":"Cube",
			"rotation":[
				-0.70710688829422,
				0,
				0,
				0.7071066498756409
			],
			"scale":[
				100,
				100,
				100
			],
			"translation":[
				30.088504791259766,
				-11.810471534729004,
				0
			]
		},
		{
			"mesh":0,
			"name":"Cube.002_Material_0"
		},
		{
			"children":[
				1
			],
			"name":"Cube.002",
			"rotation":[
				-0.70710688829422,
				0,
				0,
				0.7071066498756409
			],
			"scale":[
				100,
				100,
				100
			],
			"translation":[
				30.088489532470703,
				-6.076582908630371,
				20.095149993896484
			]
		},
		{
			"mesh":1,
			"name":"Cube.003_Material_0",
			"translation":[
				0,
				1.0874649286270142,
				0
			]
		},
		{
			"children":[
				3
			],
			"name":"Cube.003",
			"rotation":[
				-0.70710688829422,
				0,
				0,
				0.7071066498756409
			],
			"scale":[
				100,
				100,
				100
			],
			"translation":[
				29.965051651000977,
				-65.88948822021484,
				104.70856475830078
			]
		},
		{
			"mesh":2,
			"name":"Cube.004_Material_0"
		},
		{
			"children":[
				5
			],
			"name":"Cube.004",
			"rotation":[
				-0.70710688829422,
				0,
				0,
				0.7071066498756409
			],
			"scale":[
				100,
				100,
				100
			],
			"translation":[
				60.15948486328125,
				-8.830066680908203,
				33.54100036621094
			]
		},
		{
			"mesh":3,
			"name":"Cylinder.005_Material_0",
			"translation":[
				0,
				0.7834171056747437,
				0
			]
		},
		{
			"children":[
				7
			],
			"name":"Cylinder.005",
			"rotation":[
				-0.70710688829422,
				0,
				0,
				0.7071066498756409
			],
			"scale":[
				100,
				100,
				100
			],
			"translation":[
				80.52410888671875,
				-14.167256355285645,
				21.536170959472656
			]
		},
		{
			"mesh":4,
			"name":"Cylinder.006_Material_0",
			"translation":[
				0,
				0.7834171652793884,
				0
			]
		},
		{
			"children":[
				9
			],
			"name":"Cylinder.006",
			"rotation":[
				-0.70710688829422,
				0,
				0,
				0.7071066498756409
			],
			"scale":[
				100,
				100,
				100
			],
			"translation":[
				61.252227783203125,
				-64.8511962890625,
				54.11273193359375
			]
		},
		{
			"mesh":5,
			"name":"Cylinder.007_Material_0"
		},
		{
			"children":[
				11
			],
			"name":"Cylinder.007",
			"rotation":[
				-0.70710688829422,
				0,
				0,
				0.7071066498756409
			],
			"scale":[
				100,
				100,
				100
			],
			"translation":[
				52.728790283203125,
				-16.432357788085938,
				33.9842529296875
			]
		},
		{
			"children":[
				0,
				2,
				4,
				6,
				8,
				10,
				12
			],
			"name":"RootNode"
		},
		{
			"children":[
				13
			],
			"name":"121207b6f42c4ac1bcaf1d674d1d985b.fbx",
			"rotation":[
				0.70710688829422,
				0,
				0,
				0.7071066498756409
			],
			"scale":[
				0.009999999776482582,
				0.010000000707805157,
				0.010000000707805157
			]
		},
		{
			"children":[
				14
			],
			"name":"Sketchfab_model",
			"rotation":[
				0,
				-0.7071068286895752,
				-0.7071068286895752,
				1.00153539642818e-16
			]
		}
	],
	"materials":[
		{
			"doubleSided":true,
			"name":"Material.001",
			"normalTexture":{
				"index":0
			},
			"pbrMetallicRoughness":{
				"baseColorTexture":{
					"index":1
				},
				"metallicRoughnessTexture":{
					"index":2
				}
			}
		}
	],
	"meshes":[
		{
			"name":"Cube.002_Material_0",
			"primitives":[
				{
					"attributes":{
						"POSITION":0,
						"NORMAL":1,
						"TEXCOORD_0":2,
						"TEXCOORD_1":3,
						"TEXCOORD_2":4
					},
					"indices":5,
					"material":0
				}
			]
		},
		{
			"name":"Cube.003_Material_0",
			"primitives":[
				{
					"attributes":{
						"POSITION":6,
						"NORMAL":7,
						"TEXCOORD_0":8,
						"TEXCOORD_1":9,
						"TEXCOORD_2":10
					},
					"indices":11,
					"material":0
				}
			]
		},
		{
			"name":"Cube.004_Material_0",
			"primitives":[
				{
					"attributes":{
						"POSITION":12,
						"NORMAL":13,
						"TEXCOORD_0":14,
						"TEXCOORD_1":15,
						"TEXCOORD_2":16
					},
					"indices":17,
					"material":0
				}
			]
		},
		{
			"name":"Cylinder.005_Material_0",
			"primitives":[
				{
					"attributes":{
						"POSITION":18,
						"NORMAL":19,
						"TEXCOORD_0":20,
						"TEXCOORD_1":21,
						"TEXCOORD_2":22
					},
					"indices":23,
					"material":0
				}
			]
		},
		{
			"name":"Cylinder.006_Material_0",
			"primitives":[
				{
					"attributes":{
						"POSITION":24,
						"NORMAL":25,
						"TEXCOORD_0":26,
						"TEXCOORD_1":27,
						"TEXCOORD_2":28
					},
					"indices":29,
					"material":0
				}
			]
		},
		{
			"name":"Cylinder.007_Material_0",
			"primitives":[
				{
					"attributes":{
						"POSITION":30,
						"NORMAL":31,
						"TEXCOORD_0":32,
						"TEXCOORD_1":33,
						"TEXCOORD_2":34
					},
					"indices":35,
					"material":0
				}
			]
		}
	],
	"textures":[
		{
			"sampler":0,
			"source":0
		},
		{
			"sampler":0,
			"source":1
		},
		{
			"sampler":0,
			"source":2
		}
	],
	"images":[
		{
			"mimeType":"image/png",
			"name":"Material_normal",
			"uri":"Material_normal.png"
		},
		{
			"mimeType":"image/png",
			"name":"Material_baseColor",
			"uri":"Material_baseColor.png"
		},
		{
			"mimeType":"image/png",
			"name":"Material_metallicRoughness",
			"uri":"Material_metallicRoughness.png"
		}
	],
	"accessors":[
		{
			"bufferView":0,
			"componentType":5126,
			"count":154,
			"max":[
				0.3503519892692566,
				-0.05595916509628296,
				0.27249079942703247
			],
			"min":[
				-0.3503519892692566,
				-0.16194696724414825,
				-0.3022013008594513
			],
			"type":"VEC3"
		},
		{
			"bufferView":1,
			"componentType":5126,
			"count":154,
			"type":"VEC3"
		},
		{
			"bufferView":2,
			"componentType":5126,
			"count":154,
			"type":"VEC2"
		},
		{
			"bufferView":3,
			"componentType":5126,
			"count":154,
			"type":"VEC2"
		},
		{
			"bufferView":4,
			"componentType":5126,
			"count":154,
			"type":"VEC2"
		},
		{
			"bufferView":5,
			"componentType":5123,
			"count":444,
			"type":"SCALAR"
		},
		{
			"bufferView":6,
			"componentType":5126,
			"count":96,
			"max":[
				0.34844130277633667,
				0.31789350509643555,
				0.011828944087028503
			],
			"min":[
				-0.35360562801361084,
				-0.31789350509643555,
				-0.011828944087028503
			],
			"type":"VEC3"
		},
		{
			"bufferView":7,
			"componentType":5126,
			"count":96,
			"type":"VEC3"
		},
		{
			"bufferView":8,
			"componentType":5126,
			"count":96,
			"type":"VEC2"
		},
		{
			"bufferView":9,
			"componentType":5126,
			"count":96,
			"type":"VEC2"
		},
		{
			"bufferView":10,
			"componentType":5126,
			"count":96,
			"type":"VEC2"
		},
		{
			"bufferView":11,
			"componentType":5123,
			"count":276,
			"type":"SCALAR"
		},
		{
			"bufferView":12,
			"componentType":5126,
			"count":88,
			"max":[
				0.005499784369021654,
				0.03664513677358627,
				0.1531854122877121
			],
			"min":[
				-0.6069197058677673,
				-0.009634574875235558,
				-0.15384139120578766
			],
			"type":"VEC3"
		},
		{
			"bufferView":13,
			"componentType":5126,
			"count":88,
			"type":"VEC3"
		},
		{
			"bufferView":14,
			"componentType":5126,
			"count":88,
			"type":"VEC2"
		},
		{
			"bufferView":15,
			"componentType":5126,
			"count":88,
			"type":"VEC2"
		},
		{
			"bufferView":16,
			"componentType":5126,
			"count":88,
			"type":"VEC2"
		},
		{
			"bufferView":17,
			"componentType":5123,
			"count":216,
			"type":"SCALAR"
		},
		{
			"bufferView":18,
			"componentType":5126,
			"count":1312,
			"max":[
				-0.16695378720760345,
				-0.16053323447704315,
				0.3395299017429352
			],
			"min":[
				-0.8417582511901855,
				-0.9583169221878052,
				-1.0970410108566284
			],
			"type":"VEC3"
		},
		{
			"bufferView":19,
			"componentType":5126,
			"count":1312,
			"type":"VEC3"
		},
		{
			"bufferView":20,
			"componentType":5126,
			"count":1312,
			"type":"VEC2"
		},
		{
			"bufferView":21,
			"componentType":5126,
			"count":1312,
			"type":"VEC2"
		},
		{
			"bufferView":22,
			"componentType":5126,
			"count":1312,
			"type":"VEC2"
		},
		{
			"bufferView":23,
			"componentType":5123,
			"count":3552,
			"type":"SCALAR"
		},
		{
			"bufferView":24,
			"componentType":5126,
			"count":288,
			"max":[
				0.009005336090922356,
				0.009005336090922356,
				0.0027047221083194017
			],
			"min":[
				-0.6347488164901733,
				-0.4266522228717804,
				-0.001992087345570326
			],
			"type":"VEC3"
		},
		{
			"bufferView":25,
			"componentType":5126,
			"count":288,
			"type":"VEC3"
		},
		{
			"bufferView":26,
			"componentType":5126,
			"count":288,
			"type":"VEC2"
		},
		{
			"bufferView":27,
			"componentType":5126,
			"count":288,
			"type":"VEC2"
		},
		{
			"bufferView":28,
			"componentType":5126,
			"count":288,
			"type":"VEC2"
		},
		{
			"bufferView":29,
			"componentType":5123,
			"count":456,
			"type":"SCALAR"
		},
		{
			"bufferView":30,
			"componentType":5126,
			"count":303,
			"max":[
				0.009237983264029026,
				0.007107057608664036,
				0.18989615142345428
			],
			"min":[
				-0.46211910247802734,
				-0.004122801125049591,
				-0.00900533702224493
			],
			"type":"VEC3"
		},
		{
			"bufferView":31,
			"componentType":5126,
			"count":303,
			"type":"VEC3"
		},
		{
			"bufferView":32,
			"componentType":5126,
			"count":303,
			"type":"VEC2"
		},
		{
			"bufferView":33,
			"componentType":5126,
			"count":303,
			"type":"VEC2"
		},
		{
			"bufferView":34,
			"componentType":5126,
			"count":303,
			"type":"VEC2"
		},
		{
			"bufferView":35,
			"componentType":5123,
			"count":456,
			"type":"SCALAR"
		}
	],
	"bufferViews":[
		{
			"buffer":0,
			"byteLength":1848,
			"byteOffset":0,
			"target":34962
		},
		{
			"buffer":0,
			"byteLength":1848,
			"byteOffset":1848,
			"target":34962
		},
		{
			"buffer":0,
			"byteLength":1232,
			"byteOffset":3696,
			"target":34962
		},
		{
			"buffer":0,
			"byteLength":1232,
			"byteOffset":4928,
			"target":34962
		},
		{
			"buffer":0,
			"byteLength":1232,
			"byteOffset":6160,
			"target":34962
		},
		{
			"buffer":0,
			"byteLength":888,
			"byteOffset":7392,
			"target":34963
		},
		{
			"buffer":0,
			"byteLength":1152,
			"byteOffset":8280,
			"target":34962
		},
		{
			"buffer":0,
			"byteLength":1152,
			"byteOffset":9432,
			"target":34962
		},
		{
			"buffer":0,
			"byteLength":768,
			"byteOffset":10584,
			"target":34962
		},
		{
			"buffer":0,
			"byteLength":768,
			"byteOffset":11352,
			"target":34962
		},
		{
			"buffer":0,
			"byteLength":768,
			"byteOffset":12120,
			"target":34962
		},
		{
			"buffer":0,
			"byteLength":552,
			"byteOffset":12888,
			"target":34963
		},
		{
			"buffer":0,
			"byteLength":1056,
			"byteOffset":13440,
			"target":34962
		},
		{
			"buffer":0,
			"byteLength":1056,
			"byteOffset":14496,
			"target":34962
		},
		{
			"buffer":0,
			"byteLength":704,
			"byteOffset":15552,
			"target":34962
		},
		{
			"buffer":0,
			"byteLength":704,
			"byteOffset":16256,
			"target":34962
		},
		{
			"buffer":0,
			"byteLength":704,
			"byteOffset":16960,
			"target":34962
		},
		{
			"buffer":0,
			"byteLength":432,
			"byteOffset":17664,
			"target":34963
		},
		{
			"buffer":0,
			"byteLength":15744,
			"byteOffset":18096,
			"target":34962
		},
		{
			"buffer":0,
			"byteLength":15744,
			"byteOffset":33840,
			"target":34962
		},
		{
			"buffer":0,
			"byteLength":10496,
			"byteOffset":49584,
			"target":34962
		},
		{
			"buffer":0,
			"byteLength":10496,
			"byteOffset":60080,
			"target":34962
		},
		{
			"buffer":0,
			"byteLength":10496,
			"byteOffset":70576,
			"target":34962
		},
		{
			"buffer":0,
			"byteLength":7104,
			"byteOffset":81072,
			"target":34963
		},
		{
			"buffer":0,
			"byteLength":3456,
			"byteOffset":88176,
			"target":34962
		},
		{
			"buffer":0,
			"byteLength":3456,
			"byteOffset":91632,
			"target":34962
		},
		{
			"buffer":0,
			"byteLength":2304,
			"byteOffset":95088,
			"target":34962
		},
		{
			"buffer":0,
			"byteLength":2304,
			"byteOffset":97392,
			"target":34962
		},
		{
			"buffer":0,
			"byteLength":2304,
			"byteOffset":99696,
			"target":34962
		},
		{
			"buffer":0,
			"byteLength":912,
			"byteOffset":102000,
			"target":34963
		},
		{
			"buffer":0,
			"byteLength":3636,
			"byteOffset":102912,
			"target":34962
		},
		{
			"buffer":0,
			"byteLength":3636,
			"byteOffset":106548,
			"target":34962
		},
		{
			"buffer":0,
			"byteLength":2424,
			"byteOffset":110184,
			"target":34962
		},
		{
			"buffer":0,
			"byteLength":2424,
			"byteOffset":112608,
			"target":34962
		},
		{
			"buffer":0,
			"byteLength":2424,
			"byteOffset":115032,
			"target":34962
		},
		{
			"buffer":0,
			"byteLength":912,
			"byteOffset":117456,
			"target":34963
		}
	],
	"samplers":[
		{
			"magFilter":9729,
			"minFilter":9987
		}
	],
	"buffers":[
		{
			"byteLength":118368,
			"uri":"silla.bin"
		}
	]
}
